<?xml version="1.0" encoding="utf-8"?>
<!-- Generator: Adobe Illustrator 19.1.0, SVG Export Plug-In . SVG Version: 6.00 Build 0)  -->
<svg version="1.1" id="Layer_1" xmlns="http://www.w3.org/2000/svg" xmlns:xlink="http://www.w3.org/1999/xlink" x="0px" y="0px"
	 viewBox="0 0 206 76" style="enable-background:new 0 0 206 76;" xml:space="preserve">
<style type="text/css">
	.st0{fill:url(#SVGID_1_);}
	.st1{fill:#1D1D1B;}
	.st2{fill:url(#SVGID_2_);}
	.st3{fill:url(#SVGID_3_);}
	.st4{fill:url(#SVGID_4_);}
	.st5{fill:url(#SVGID_5_);}
	.st6{fill:url(#SVGID_6_);}
	.st7{fill:url(#SVGID_7_);}
	.st8{fill:url(#SVGID_8_);}
	.st9{fill:url(#SVGID_9_);}
	.st10{fill:url(#SVGID_10_);}
	.st11{fill:url(#SVGID_11_);}
	.st12{fill:url(#SVGID_12_);}
	.st13{fill:url(#SVGID_13_);}
	.st14{fill:url(#SVGID_14_);}
	.st15{fill:url(#SVGID_15_);}
	.st16{fill:url(#SVGID_16_);}
	.st17{fill:url(#SVGID_17_);}
	.st18{fill:url(#SVGID_18_);}
	.st19{fill:url(#SVGID_19_);}
	.st20{fill:url(#SVGID_20_);}
	.st21{fill:url(#SVGID_21_);}
	.st22{fill:none;stroke:url(#SVGID_22_);stroke-miterlimit:10;}
	.st23{fill:none;stroke:url(#SVGID_23_);stroke-miterlimit:10;}
	.st24{fill:none;stroke:url(#SVGID_24_);stroke-miterlimit:10;}
	.st25{fill:none;stroke:url(#SVGID_25_);stroke-miterlimit:10;}
	.st26{fill:none;stroke:url(#SVGID_26_);stroke-miterlimit:10;}
	.st27{fill:none;stroke:url(#SVGID_27_);stroke-miterlimit:10;}
	.st28{fill:none;stroke:url(#SVGID_28_);stroke-miterlimit:10;}
	.st29{fill:none;stroke:url(#SVGID_29_);stroke-miterlimit:10;}
	.st30{fill:none;stroke:url(#SVGID_30_);stroke-miterlimit:10;}
	.st31{fill:none;stroke:url(#SVGID_31_);stroke-miterlimit:10;}
	.st32{fill:none;stroke:url(#SVGID_32_);stroke-miterlimit:10;}
	.st33{fill:none;stroke:url(#SVGID_33_);stroke-miterlimit:10;}
	.st34{fill:none;stroke:url(#SVGID_34_);stroke-miterlimit:10;}
	.st35{fill:none;stroke:url(#SVGID_35_);stroke-miterlimit:10;}
	.st36{fill:none;stroke:url(#SVGID_36_);stroke-miterlimit:10;}
	.st37{fill:none;stroke:url(#SVGID_37_);stroke-miterlimit:10;}
	.st38{fill:none;stroke:url(#SVGID_38_);stroke-miterlimit:10;}
	.st39{fill:none;stroke:url(#SVGID_39_);stroke-miterlimit:10;}
	.st40{fill:none;stroke:url(#SVGID_40_);stroke-miterlimit:10;}
	.st41{fill:none;stroke:url(#SVGID_41_);stroke-miterlimit:10;}
	.st42{fill:none;}
	.st43{font-family:'SkyText-Regular';}
	.st44{font-size:39px;}
	.st45{fill:url(#SVGID_42_);}
	.st46{fill:url(#SVGID_43_);}
	.st47{fill:url(#SVGID_44_);}
	.st48{fill:url(#SVGID_45_);}
	.st49{fill:url(#SVGID_46_);}
	.st50{fill:url(#SVGID_47_);}
	.st51{fill:url(#SVGID_48_);}
	.st52{fill:url(#SVGID_49_);}
	.st53{fill:url(#SVGID_50_);}
	.st54{fill:url(#SVGID_51_);}
	.st55{fill:url(#SVGID_52_);}
	.st56{fill:url(#SVGID_53_);}
	.st57{fill:url(#SVGID_54_);}
	.st58{fill:url(#SVGID_55_);}
	.st59{fill:url(#SVGID_56_);}
	.st60{fill:url(#SVGID_57_);}
	.st61{fill:none;stroke:url(#SVGID_58_);stroke-miterlimit:10;}
	.st62{fill:none;stroke:url(#SVGID_59_);stroke-miterlimit:10;}
	.st63{fill:none;stroke:url(#SVGID_60_);stroke-miterlimit:10;}
	.st64{fill:none;stroke:url(#SVGID_61_);stroke-miterlimit:10;}
	.st65{fill:none;stroke:url(#SVGID_62_);stroke-miterlimit:10;}
	.st66{fill:none;stroke:url(#SVGID_63_);stroke-miterlimit:10;}
	.st67{fill:none;stroke:url(#SVGID_64_);stroke-miterlimit:10;}
	.st68{fill:none;stroke:url(#SVGID_65_);stroke-miterlimit:10;}
	.st69{fill:none;stroke:url(#SVGID_66_);stroke-miterlimit:10;}
	.st70{fill:none;stroke:url(#SVGID_67_);stroke-miterlimit:10;}
	.st71{fill:none;stroke:url(#SVGID_68_);stroke-miterlimit:10;}
	.st72{fill:none;stroke:url(#SVGID_69_);stroke-miterlimit:10;}
	.st73{fill:none;stroke:url(#SVGID_70_);stroke-miterlimit:10;}
	.st74{fill:none;stroke:url(#SVGID_71_);stroke-miterlimit:10;}
	.st75{fill:none;stroke:url(#SVGID_72_);stroke-miterlimit:10;}
	.st76{fill:none;stroke:url(#SVGID_73_);stroke-miterlimit:10;}
</style>
<g>
	<g>
		<linearGradient id="SVGID_1_" gradientUnits="userSpaceOnUse" x1="-417" y1="18.7149" x2="-248.2746" y2="18.7149">
			<stop  offset="0" style="stop-color:#F6871F"/>
			<stop  offset="0.35" style="stop-color:#ED1C24"/>
			<stop  offset="0.8" style="stop-color:#A43383"/>
			<stop  offset="1" style="stop-color:#0052A4"/>
		</linearGradient>
		<path class="st0" d="M-405.5,13.9l-3.4-1c-1.5-0.4-2.5-0.8-3.1-1.3c-0.6-0.4-0.9-1.1-0.9-1.9c0-0.4,0.1-0.7,0.2-1.1
			c0.2-0.3,0.4-0.7,0.8-0.9c0.4-0.3,0.8-0.5,1.4-0.7c0.6-0.2,1.3-0.2,2.2-0.2c0.8,0,1.5,0,2.1,0.1c0.6,0.1,1.2,0.2,1.7,0.3
			c0.5,0.1,0.9,0.2,1.3,0.3c0.4,0.1,0.8,0.1,1.1,0.1c0.7,0,1.1-0.2,1.4-0.7c0.3-0.5,0.4-1.2,0.4-2V4.3c-1.5-0.5-2.9-0.9-4.2-1.1
			c-1.3-0.2-2.6-0.3-3.8-0.3c-1.7,0-3.2,0.2-4.3,0.7c-1.1,0.4-2.1,1-2.8,1.6c-0.7,0.7-1.2,1.4-1.5,2.2c-0.3,0.8-0.4,1.6-0.4,2.4
			c0,1.6,0.5,3,1.5,4.2c1,1.2,2.7,2.2,5.2,2.9l3.2,0.9c0.6,0.2,1.2,0.4,1.6,0.5c0.5,0.2,0.9,0.4,1.2,0.6c0.3,0.2,0.6,0.5,0.8,0.9
			c0.2,0.3,0.3,0.8,0.3,1.2c0,1-0.4,1.8-1.1,2.4c-0.8,0.6-2,1-3.8,1c-0.8,0-1.6-0.1-2.3-0.2c-0.7-0.1-1.3-0.2-1.9-0.3
			c-0.6-0.1-1.1-0.2-1.6-0.3c-0.5-0.1-0.9-0.2-1.2-0.2c-0.7,0-1.2,0.3-1.5,0.8c-0.3,0.5-0.5,1.2-0.5,2c0,0.1,0,0.2,0,0.3
			c0,0.1,0,0.2,0,0.3c1.5,0.5,3,0.9,4.5,1.1c1.5,0.3,2.8,0.4,4.1,0.4c1.7,0,3.1-0.2,4.3-0.6c1.2-0.4,2.2-0.9,3-1.6
			c0.8-0.7,1.4-1.5,1.7-2.4c0.4-0.9,0.6-1.9,0.6-3.1C-398.8,17.4-401,15-405.5,13.9z M-379.2,10c-0.4-0.1-0.8-0.2-1.2-0.3
			c-0.4-0.1-0.9-0.1-1.3-0.1c-0.8,0-1.4,0.1-1.8,0.3c-0.4,0.2-0.8,0.5-1.2,0.9l-6.4,7V2.2c-0.2-0.1-0.5-0.1-0.9-0.1
			c-0.4,0-0.8-0.1-1.2-0.1c-0.8,0-1.4,0.2-1.7,0.5c-0.3,0.3-0.4,0.8-0.4,1.3v24.3c0.2,0.1,0.5,0.1,0.9,0.1c0.4,0,0.8,0.1,1.2,0.1
			c0.8,0,1.4-0.2,1.7-0.5c0.3-0.3,0.4-0.8,0.4-1.3v-7.2l6.5,7.5c0.3,0.3,0.7,0.6,1.1,1c0.5,0.3,1.1,0.5,1.9,0.5
			c0.5,0,1.1-0.1,1.6-0.2c0.5-0.1,1-0.3,1.4-0.5l-8.3-9.2L-379.2,10z M-361.6,9.4c-0.5,0-0.9,0.1-1.3,0.2c-0.4,0.2-0.6,0.5-0.8,1
			l-4.6,12.9l-4.5-12.9c-0.1-0.4-0.4-0.7-0.7-0.9c-0.4-0.2-0.9-0.3-1.5-0.3c-0.4,0-0.9,0.1-1.3,0.2c-0.4,0.1-0.8,0.2-1,0.3l7.2,18.1
			l-3.1,7.1c0.3,0.1,0.6,0.2,0.9,0.3c0.3,0.1,0.8,0.1,1.2,0.1c1.2,0,2-0.5,2.4-1.6l9.3-23.9c-0.3-0.1-0.6-0.2-1-0.3
			C-360.9,9.4-361.3,9.4-361.6,9.4z M-321.7,3.1c-0.6,0-1.1,0.1-1.5,0.3c-0.4,0.2-0.6,0.6-0.7,1.2l-1.8,10.2
			c-0.1,0.7-0.3,1.4-0.4,2.3c-0.2,0.8-0.3,1.7-0.5,2.5c-0.2,0.9-0.3,1.7-0.4,2.5c-0.1,0.8-0.3,1.6-0.4,2.3c-0.3-1.4-0.6-2.9-0.9-4.6
			c-0.3-1.6-0.7-3.3-1.1-4.9l-2.8-11.6c-0.7-0.2-1.5-0.3-2.3-0.3c-0.8,0-1.5,0.1-2.1,0.4c-0.5,0.3-0.9,0.7-1.1,1.4l-2.5,10.1
			c-0.4,1.8-0.8,3.4-1.2,5c-0.3,1.6-0.6,3.1-0.8,4.5c-0.2-1.4-0.4-2.9-0.7-4.5c-0.3-1.6-0.6-3.2-0.8-4.8l-1.9-10.4
			c-0.1-0.6-0.4-1.1-0.8-1.3c-0.4-0.2-0.9-0.3-1.5-0.3c-0.5,0-0.9,0.1-1.3,0.2c-0.4,0.1-0.7,0.2-1,0.3l5.2,24.4
			c0.4,0.1,0.8,0.2,1.4,0.3c0.5,0.1,1,0.1,1.4,0.1c0.8,0,1.5-0.1,1.9-0.4c0.5-0.2,0.8-0.8,1-1.6l2.8-11.6c0.2-0.9,0.5-2,0.7-3.3
			c0.3-1.2,0.5-2.5,0.8-3.7c0.2,0.6,0.3,1.2,0.4,1.8c0.1,0.6,0.2,1.3,0.4,1.9c0.1,0.6,0.2,1.2,0.3,1.7c0.1,0.5,0.2,1.1,0.3,1.5
			l3.2,13.2c0.4,0.1,0.8,0.2,1.3,0.2c0.5,0,1,0.1,1.3,0.1c0.8,0,1.5-0.1,2.1-0.3c0.5-0.2,0.9-0.8,1.1-1.6l4.7-22.9
			c-0.3-0.1-0.6-0.2-0.9-0.3C-320.8,3.1-321.2,3.1-321.7,3.1z M-302.1,12.1c-0.8-0.9-1.8-1.6-3-2.1c-1.2-0.5-2.5-0.8-3.9-0.8
			c-1.4,0-2.7,0.3-3.9,0.8c-1.2,0.5-2.2,1.2-3,2.1c-0.8,0.9-1.5,1.9-2,3c-0.5,1.2-0.7,2.4-0.7,3.7c0,1.4,0.2,2.6,0.7,3.8
			c0.5,1.2,1.1,2.2,2,3c0.8,0.9,1.9,1.5,3,2c1.2,0.5,2.5,0.7,3.9,0.7c1.4,0,2.7-0.3,3.9-0.8c1.2-0.5,2.2-1.2,3-2.1
			c0.8-0.9,1.5-1.9,1.9-3.1c0.4-1.2,0.7-2.4,0.7-3.7s-0.2-2.5-0.7-3.7C-300.6,14-301.3,12.9-302.1,12.1z M-304.2,21.5
			c-0.3,0.8-0.7,1.4-1.2,1.9c-0.5,0.5-1.1,0.9-1.7,1.1c-0.6,0.3-1.3,0.4-1.9,0.4c-0.7,0-1.3-0.1-2-0.4c-0.6-0.3-1.2-0.6-1.7-1.2
			c-0.5-0.5-0.9-1.2-1.2-1.9c-0.3-0.8-0.5-1.7-0.5-2.7c0-0.9,0.1-1.8,0.4-2.6c0.3-0.8,0.7-1.4,1.2-1.9c0.5-0.5,1.1-0.9,1.7-1.2
			c0.6-0.3,1.3-0.4,2-0.4c0.7,0,1.4,0.1,2,0.4c0.6,0.3,1.2,0.7,1.7,1.2c0.5,0.5,0.8,1.2,1.1,1.9c0.3,0.8,0.4,1.6,0.4,2.6
			C-303.7,19.9-303.9,20.8-304.2,21.5z M-285.7,9.4c-0.3,0-0.7-0.1-1.1-0.1c-1.1,0-2.2,0.3-3,0.9c-0.9,0.6-1.6,1.6-2.1,2.8h-0.1
			v-1.3c0-0.7-0.2-1.3-0.5-1.7c-0.3-0.4-0.9-0.6-1.7-0.6c-0.4,0-0.7,0-1,0.1c-0.3,0.1-0.6,0.1-0.9,0.2v18.4c0.2,0.1,0.5,0.1,0.9,0.1
			c0.4,0,0.8,0.1,1.2,0.1c0.8,0,1.4-0.2,1.7-0.5c0.3-0.3,0.4-0.8,0.4-1.3v-9.2c0-1.5,0.4-2.5,1.2-3.2c0.8-0.7,1.9-1,3.2-1h0.7
			c1.4,0,2.1-0.7,2.1-2.1c0-0.4-0.1-0.9-0.2-1.5C-285,9.5-285.3,9.4-285.7,9.4z M-266.1,10c-0.4-0.1-0.8-0.2-1.2-0.3
			c-0.4-0.1-0.9-0.1-1.3-0.1c-0.8,0-1.4,0.1-1.8,0.3c-0.4,0.2-0.8,0.5-1.2,0.9l-6.4,7V2.2c-0.2-0.1-0.5-0.1-0.9-0.1
			c-0.4,0-0.8-0.1-1.2-0.1c-0.8,0-1.4,0.2-1.7,0.5c-0.3,0.3-0.4,0.8-0.4,1.3v24.3c0.2,0.1,0.5,0.1,0.9,0.1c0.4,0,0.8,0.1,1.2,0.1
			c0.8,0,1.4-0.2,1.7-0.5c0.3-0.3,0.4-0.8,0.4-1.3v-7.2l6.5,7.5c0.3,0.3,0.7,0.6,1.1,1c0.5,0.3,1.1,0.5,1.9,0.5
			c0.5,0,1.1-0.1,1.6-0.2c0.5-0.1,1-0.3,1.4-0.5l-8.3-9.2L-266.1,10z M-249.6,19.4c-0.9-0.9-2.3-1.6-4.4-2.2l-2.9-0.8
			c-0.6-0.2-1.1-0.3-1.4-0.4c-0.3-0.1-0.6-0.3-0.8-0.4c-0.2-0.2-0.3-0.3-0.4-0.5c-0.1-0.2-0.1-0.4-0.1-0.6c0-0.5,0.2-1,0.7-1.3
			s1.4-0.5,2.6-0.5c1.3,0,2.4,0.1,3.3,0.4c0.9,0.3,1.6,0.4,2.1,0.4c0.6,0,1-0.2,1.2-0.6c0.3-0.4,0.4-1,0.4-1.7c0-0.1,0-0.2,0-0.3
			c0-0.1,0-0.2,0-0.3c-2.5-0.8-4.8-1.2-7-1.2c-1.4,0-2.5,0.1-3.4,0.4c-0.9,0.3-1.7,0.7-2.3,1.2c-0.6,0.5-1,1-1.3,1.7
			c-0.3,0.6-0.4,1.3-0.4,2c0,1.3,0.4,2.3,1.2,3.2c0.8,0.9,2.3,1.6,4.3,2.2l2.7,0.8c1.1,0.3,1.9,0.6,2.3,0.9c0.4,0.3,0.7,0.7,0.7,1.3
			c0,0.3,0,0.5-0.1,0.8c-0.1,0.2-0.3,0.5-0.5,0.7c-0.3,0.2-0.6,0.3-1.1,0.5c-0.5,0.1-1.1,0.2-1.9,0.2c-0.7,0-1.3-0.1-2-0.2
			c-0.6-0.1-1.2-0.2-1.7-0.4c-0.5-0.1-1-0.3-1.4-0.4c-0.4-0.1-0.8-0.2-1.1-0.2c-0.5,0-0.9,0.2-1.2,0.6c-0.3,0.4-0.4,0.9-0.4,1.6
			c0,0.1,0,0.3,0,0.4c0,0.1,0,0.3,0.1,0.4c1.2,0.4,2.5,0.8,3.8,1c1.3,0.2,2.6,0.4,3.8,0.4c1.5,0,2.8-0.2,3.8-0.5
			c1-0.3,1.8-0.8,2.4-1.3c0.6-0.5,1-1.1,1.2-1.8c0.2-0.7,0.4-1.4,0.4-2C-248.3,21.4-248.7,20.3-249.6,19.4z"/>
	</g>
</g>
<g>
	<rect x="-225" y="1.3" class="st42" width="204.7" height="74.7"/>
	<text transform="matrix(1 0 0 1 -222.4463 27.8529)"><tspan x="0" y="0" class="st43 st44">Sprite sheet</tspan><tspan x="18.7" y="36" class="st43 st44">generator</tspan></text>
	<rect x="-225" y="1.3" class="st42" width="204.7" height="74.7"/>
	<text transform="matrix(1 0 0 1 -222.4463 27.8529)"><tspan x="0" y="0" class="st1 st43 st44">Sprite sheet</tspan><tspan x="18.7" y="36" class="st1 st43 st44">generator</tspan></text>
	<g>
		<linearGradient id="SVGID_2_" gradientUnits="userSpaceOnUse" x1="-220.8983" y1="36.688" x2="-23.4777" y2="36.688">
			<stop  offset="0" style="stop-color:#F6871F"/>
			<stop  offset="0.35" style="stop-color:#ED1C24"/>
			<stop  offset="0.8" style="stop-color:#A43383"/>
			<stop  offset="1" style="stop-color:#0052A4"/>
		</linearGradient>
		<path class="st2" d="M-212.7,28.3c-1.2,0-2.5-0.1-3.9-0.3c-1.4-0.2-2.8-0.6-4.3-1.2c-0.1-0.6,0.1-1.2,0.4-1.5
			c0.3-0.4,0.7-0.5,1.2-0.5c0.3,0,0.7,0.1,1.1,0.2c0.4,0.1,0.9,0.2,1.5,0.4c0.6,0.1,1.2,0.3,1.9,0.4c0.7,0.1,1.6,0.2,2.5,0.2
			c1.1,0,2-0.1,2.8-0.4c0.8-0.3,1.4-0.6,1.9-1c0.5-0.4,0.9-0.9,1.1-1.5s0.4-1.2,0.4-1.8c0-1.3-0.4-2.3-1.2-2.9
			c-0.8-0.6-2-1.2-3.4-1.5l-3.5-1c-1.2-0.3-2.2-0.7-3-1.2c-0.8-0.5-1.5-1-2-1.6c-0.5-0.6-0.9-1.2-1.1-1.9c-0.2-0.7-0.4-1.4-0.4-2.2
			c0-0.8,0.1-1.5,0.4-2.3c0.3-0.8,0.7-1.5,1.4-2.1c0.6-0.6,1.5-1.2,2.6-1.6c1.1-0.4,2.4-0.6,4-0.6c1.3,0,2.5,0.1,3.8,0.3
			c1.2,0.2,2.6,0.6,3.9,1.1c0.1,0.6-0.1,1.2-0.4,1.5c-0.3,0.4-0.7,0.5-1.2,0.5c-0.3,0-0.6-0.1-0.9-0.2c-0.4-0.1-0.8-0.2-1.3-0.4
			c-0.5-0.1-1.1-0.3-1.8-0.4c-0.7-0.1-1.4-0.2-2.3-0.2c-1.1,0-2,0.1-2.7,0.4c-0.7,0.3-1.3,0.6-1.8,1c-0.4,0.4-0.8,0.9-0.9,1.4
			c-0.2,0.5-0.3,1-0.3,1.5c0,1.1,0.3,2,1,2.6s1.9,1.2,3.7,1.7l3.6,1c2.2,0.6,3.8,1.5,4.8,2.7c1,1.1,1.5,2.5,1.5,4.2
			c0,1.1-0.2,2.1-0.6,3s-0.9,1.7-1.7,2.3c-0.8,0.6-1.7,1.1-2.9,1.5C-209.7,28.1-211.1,28.3-212.7,28.3z"/>
		<linearGradient id="SVGID_3_" gradientUnits="userSpaceOnUse" x1="-220.8983" y1="36.688" x2="-23.4777" y2="36.688">
			<stop  offset="0" style="stop-color:#F6871F"/>
			<stop  offset="0.35" style="stop-color:#ED1C24"/>
			<stop  offset="0.8" style="stop-color:#A43383"/>
			<stop  offset="1" style="stop-color:#0052A4"/>
		</linearGradient>
		<path class="st3" d="M-198.1,35.3c-0.2,0-0.5,0-0.7,0c-0.2,0-0.4-0.1-0.5-0.1V9.4c0.4-0.1,0.8-0.2,1.1-0.2c1,0,1.5,0.6,1.5,1.7
			v1.3h0c0.8-1,1.6-1.9,2.7-2.5c1-0.6,2.3-0.9,3.8-0.9c1.2,0,2.3,0.2,3.3,0.7c1.1,0.5,2,1.1,2.8,2c0.8,0.9,1.4,1.9,1.9,3.1
			c0.5,1.2,0.7,2.5,0.7,4c0,1.7-0.3,3.1-0.8,4.3c-0.5,1.2-1.2,2.2-2,3c-0.8,0.8-1.8,1.4-2.8,1.7c-1,0.4-2.1,0.6-3.1,0.6
			c-1.5,0-2.8-0.3-3.9-0.9c-1.1-0.6-1.9-1.3-2.5-2v9c0,0.3-0.1,0.6-0.3,0.8C-197.2,35.2-197.6,35.3-198.1,35.3z M-190.8,26
			c0.9,0,1.8-0.2,2.6-0.5c0.8-0.3,1.5-0.8,2-1.4c0.6-0.6,1-1.4,1.3-2.3c0.3-0.9,0.5-2,0.5-3.1c0-1-0.1-1.9-0.4-2.8s-0.7-1.7-1.2-2.4
			c-0.5-0.7-1.2-1.3-2-1.7c-0.8-0.4-1.8-0.6-2.8-0.6c-1.2,0-2.3,0.3-3.4,1c-1.1,0.6-1.9,1.6-2.5,2.7v7.6c0.5,1,1.3,1.8,2.3,2.5
			C-193.4,25.7-192.2,26-190.8,26z"/>
		<linearGradient id="SVGID_4_" gradientUnits="userSpaceOnUse" x1="-220.8983" y1="36.688" x2="-23.4777" y2="36.688">
			<stop  offset="0" style="stop-color:#F6871F"/>
			<stop  offset="0.35" style="stop-color:#ED1C24"/>
			<stop  offset="0.8" style="stop-color:#A43383"/>
			<stop  offset="1" style="stop-color:#0052A4"/>
		</linearGradient>
		<path class="st4" d="M-176.5,28.1c-0.2,0-0.5,0-0.7,0c-0.2,0-0.4-0.1-0.5-0.1V9.4c0.4-0.1,0.8-0.2,1.1-0.2c1,0,1.5,0.6,1.5,1.7
			v1.8h0.1c0.6-1.4,1.4-2.4,2.5-2.9c1-0.6,2.2-0.8,3.4-0.8c0.8,0,1.5,0.1,2.1,0.3c0.1,0.8,0,1.4-0.3,1.7c-0.3,0.4-0.7,0.5-1.2,0.5
			c-0.8-0.1-1.6-0.1-2.4,0.1c-0.8,0.2-1.5,0.5-2.1,1c-0.6,0.5-1.1,1.1-1.5,2c-0.4,0.8-0.6,1.9-0.6,3.1V27c0,0.3-0.1,0.6-0.3,0.8
			C-175.6,28-176,28.1-176.5,28.1z"/>
		<linearGradient id="SVGID_5_" gradientUnits="userSpaceOnUse" x1="-220.8983" y1="36.688" x2="-23.4777" y2="36.688">
			<stop  offset="0" style="stop-color:#F6871F"/>
			<stop  offset="0.35" style="stop-color:#ED1C24"/>
			<stop  offset="0.8" style="stop-color:#A43383"/>
			<stop  offset="1" style="stop-color:#0052A4"/>
		</linearGradient>
		<path class="st5" d="M-163.2,4.8c-0.5,0-0.9-0.2-1.2-0.5c-0.3-0.3-0.5-0.7-0.5-1.2c0-0.5,0.2-0.9,0.5-1.2c0.3-0.3,0.7-0.5,1.2-0.5
			c0.5,0,0.9,0.2,1.2,0.5c0.3,0.3,0.5,0.7,0.5,1.2c0,0.4-0.2,0.8-0.5,1.2C-162.3,4.6-162.7,4.8-163.2,4.8z M-163.3,28.1
			c-0.2,0-0.5,0-0.7,0s-0.4-0.1-0.5-0.1V10.3c0-0.3,0.1-0.6,0.3-0.8c0.2-0.2,0.6-0.3,1.1-0.3c0.2,0,0.5,0,0.7,0
			c0.2,0,0.4,0.1,0.5,0.1V27c0,0.3-0.1,0.6-0.3,0.8C-162.4,28-162.8,28.1-163.3,28.1z"/>
		<linearGradient id="SVGID_6_" gradientUnits="userSpaceOnUse" x1="-220.8983" y1="36.688" x2="-23.4777" y2="36.688">
			<stop  offset="0" style="stop-color:#F6871F"/>
			<stop  offset="0.35" style="stop-color:#ED1C24"/>
			<stop  offset="0.8" style="stop-color:#A43383"/>
			<stop  offset="1" style="stop-color:#0052A4"/>
		</linearGradient>
		<path class="st6" d="M-149.7,28.1c-1.8,0-3.3-0.6-4.3-1.7c-1-1.1-1.5-2.5-1.5-4.3V11.5h-3c-0.1-0.2-0.1-0.6-0.1-1
			c0-0.4,0.1-0.7,0.3-0.9c0.2-0.2,0.4-0.2,0.6-0.2h2.3V5.6c0-0.4,0.1-0.7,0.3-1c0.2-0.3,0.6-0.5,1.2-0.5c0.2,0,0.3,0,0.5,0
			c0.2,0,0.4,0.1,0.5,0.1v5.1h7.1c0.1,0.2,0.1,0.6,0.1,1c0,0.4-0.1,0.7-0.3,0.9c-0.2,0.2-0.4,0.2-0.6,0.2h-6.3V22
			c0,1.2,0.3,2.1,0.9,2.8c0.6,0.7,1.5,1.1,2.7,1.1c0.5,0,0.9-0.1,1.3-0.2c0.4-0.1,0.7-0.2,1-0.4c0.3-0.1,0.6-0.2,0.8-0.4
			c0.2-0.1,0.5-0.2,0.7-0.2c0.4,0,0.6,0.1,0.8,0.4c0.2,0.3,0.3,0.7,0.2,1.4c-0.7,0.4-1.4,0.8-2.2,1.1
			C-147.7,28-148.7,28.1-149.7,28.1z"/>
		<linearGradient id="SVGID_7_" gradientUnits="userSpaceOnUse" x1="-220.8983" y1="36.688" x2="-23.4777" y2="36.688">
			<stop  offset="0" style="stop-color:#F6871F"/>
			<stop  offset="0.35" style="stop-color:#ED1C24"/>
			<stop  offset="0.8" style="stop-color:#A43383"/>
			<stop  offset="1" style="stop-color:#0052A4"/>
		</linearGradient>
		<path class="st7" d="M-133.2,28.3c-1.5,0-2.9-0.2-4.1-0.7c-1.2-0.5-2.2-1.2-3-2.1c-0.8-0.9-1.4-1.9-1.9-3.1
			c-0.4-1.2-0.6-2.4-0.6-3.8c0-1.4,0.2-2.7,0.7-3.8c0.5-1.2,1.1-2.2,1.9-3.1c0.8-0.9,1.7-1.5,2.8-2c1.1-0.5,2.2-0.7,3.5-0.7
			c1.4,0,2.7,0.3,3.7,0.8c1.1,0.6,1.9,1.3,2.6,2.1c0.7,0.9,1.2,1.8,1.5,2.8c0.3,1,0.5,2,0.5,3c0,0.8,0,1.4-0.1,1.7h-14.6
			c0.1,1.1,0.3,2,0.6,2.8c0.4,0.8,0.9,1.5,1.5,2s1.3,1,2.2,1.3s1.7,0.4,2.6,0.4c0.8,0,1.5-0.1,2-0.2c0.6-0.1,1.1-0.3,1.6-0.4
			c0.5-0.2,0.9-0.3,1.2-0.4c0.3-0.1,0.6-0.2,0.9-0.2c0.4,0,0.7,0.2,0.9,0.5c0.2,0.4,0.3,0.8,0.2,1.4c-0.7,0.4-1.6,0.7-2.8,1.1
			S-131.7,28.3-133.2,28.3z M-140.2,17.5h12.2c-0.1-0.9-0.2-1.7-0.5-2.5c-0.3-0.8-0.7-1.5-1.2-2c-0.5-0.6-1.1-1-1.8-1.4
			c-0.7-0.3-1.5-0.5-2.4-0.5c-0.9,0-1.7,0.2-2.4,0.5c-0.7,0.3-1.4,0.8-1.9,1.4s-1,1.3-1.3,2C-139.9,15.7-140.1,16.6-140.2,17.5z"/>
		<linearGradient id="SVGID_8_" gradientUnits="userSpaceOnUse" x1="-220.8983" y1="36.688" x2="-23.4777" y2="36.688">
			<stop  offset="0" style="stop-color:#F6871F"/>
			<stop  offset="0.35" style="stop-color:#ED1C24"/>
			<stop  offset="0.8" style="stop-color:#A43383"/>
			<stop  offset="1" style="stop-color:#0052A4"/>
		</linearGradient>
		<path class="st8" d="M-107.5,28.1c-1.3,0-2.6-0.1-3.8-0.4c-1.2-0.3-2.4-0.6-3.6-1.1c-0.1-0.6-0.1-1,0.1-1.4
			c0.2-0.4,0.5-0.5,0.9-0.5c0.3,0,0.6,0.1,1,0.2c0.4,0.1,0.9,0.3,1.4,0.4c0.5,0.1,1.1,0.3,1.8,0.4c0.7,0.1,1.4,0.2,2.2,0.2
			c1.1,0,1.9-0.1,2.6-0.3c0.6-0.2,1.1-0.4,1.5-0.8c0.3-0.3,0.6-0.6,0.7-1c0.1-0.4,0.2-0.7,0.2-1c0-0.8-0.3-1.4-0.8-1.8
			c-0.6-0.4-1.5-0.8-2.9-1.2l-3.3-0.9c-1.9-0.5-3.2-1.2-4-2c-0.8-0.8-1.2-1.8-1.2-2.9c0-0.6,0.1-1.3,0.4-1.9s0.6-1.2,1.2-1.7
			c0.6-0.5,1.3-0.9,2.2-1.2c0.9-0.3,2.1-0.4,3.4-0.4c1.2,0,2.3,0.1,3.4,0.3c1.1,0.2,2.2,0.5,3.4,0.9c0.2,1.3-0.2,1.9-1.1,1.9
			c-0.2,0-0.5-0.1-0.9-0.2c-0.3-0.1-0.7-0.2-1.2-0.4c-0.5-0.1-1-0.2-1.6-0.4s-1.3-0.2-2-0.2c-1.7,0-2.9,0.3-3.6,0.8
			c-0.7,0.5-1.1,1.2-1.1,2c0,0.3,0,0.6,0.1,0.9c0.1,0.3,0.2,0.5,0.5,0.8c0.2,0.2,0.6,0.5,1.1,0.7c0.5,0.2,1.1,0.4,1.8,0.6l3.2,0.9
			c1.1,0.3,2,0.6,2.7,0.9c0.7,0.3,1.3,0.7,1.7,1.1c0.4,0.4,0.8,0.9,1,1.4c0.2,0.5,0.3,1.1,0.3,1.7c0,0.6-0.1,1.2-0.3,1.8
			c-0.2,0.6-0.6,1.2-1.1,1.7c-0.5,0.5-1.3,0.9-2.3,1.3C-104.7,28-106,28.1-107.5,28.1z"/>
		<linearGradient id="SVGID_9_" gradientUnits="userSpaceOnUse" x1="-220.8983" y1="36.688" x2="-23.4777" y2="36.688">
			<stop  offset="0" style="stop-color:#F6871F"/>
			<stop  offset="0.35" style="stop-color:#ED1C24"/>
			<stop  offset="0.8" style="stop-color:#A43383"/>
			<stop  offset="1" style="stop-color:#0052A4"/>
		</linearGradient>
		<path class="st9" d="M-94.7,28.1c-0.2,0-0.5,0-0.7,0c-0.2,0-0.4-0.1-0.5-0.1V2.4c0-0.3,0.1-0.6,0.3-0.8c0.2-0.2,0.6-0.3,1.1-0.3
			c0.2,0,0.5,0,0.7,0c0.2,0,0.4,0.1,0.5,0.1V12c0.7-0.8,1.5-1.6,2.6-2.2c1-0.6,2.3-0.9,3.8-0.9c0.9,0,1.8,0.2,2.7,0.5
			c0.8,0.3,1.6,0.8,2.2,1.4c0.6,0.6,1.1,1.5,1.5,2.5c0.4,1,0.6,2.2,0.6,3.6V27c0,0.3-0.1,0.6-0.3,0.8c-0.2,0.2-0.6,0.3-1.1,0.3
			c-0.2,0-0.5,0-0.7,0s-0.4-0.1-0.5-0.1V17.1c0-2-0.5-3.5-1.4-4.5c-0.9-1-2.2-1.5-3.7-1.5c-1.2,0-2.3,0.3-3.3,1
			c-1,0.6-1.8,1.5-2.3,2.4V27c0,0.3-0.1,0.6-0.3,0.8C-93.8,28-94.2,28.1-94.7,28.1z"/>
		<linearGradient id="SVGID_10_" gradientUnits="userSpaceOnUse" x1="-220.8983" y1="36.688" x2="-23.4777" y2="36.688">
			<stop  offset="0" style="stop-color:#F6871F"/>
			<stop  offset="0.35" style="stop-color:#ED1C24"/>
			<stop  offset="0.8" style="stop-color:#A43383"/>
			<stop  offset="1" style="stop-color:#0052A4"/>
		</linearGradient>
		<path class="st10" d="M-66.6,28.3c-1.5,0-2.9-0.2-4.1-0.7c-1.2-0.5-2.2-1.2-3-2.1c-0.8-0.9-1.4-1.9-1.9-3.1
			c-0.4-1.2-0.6-2.4-0.6-3.8c0-1.4,0.2-2.7,0.7-3.8c0.5-1.2,1.1-2.2,1.9-3.1c0.8-0.9,1.7-1.5,2.8-2c1.1-0.5,2.2-0.7,3.5-0.7
			c1.4,0,2.7,0.3,3.7,0.8c1.1,0.6,1.9,1.3,2.6,2.1c0.7,0.9,1.2,1.8,1.5,2.8c0.3,1,0.5,2,0.5,3c0,0.8,0,1.4-0.1,1.7h-14.6
			c0.1,1.1,0.3,2,0.6,2.8c0.4,0.8,0.9,1.5,1.5,2s1.3,1,2.2,1.3s1.7,0.4,2.6,0.4c0.8,0,1.5-0.1,2-0.2c0.6-0.1,1.1-0.3,1.6-0.4
			c0.5-0.2,0.9-0.3,1.2-0.4c0.3-0.1,0.6-0.2,0.9-0.2c0.4,0,0.7,0.2,0.9,0.5c0.2,0.4,0.3,0.8,0.2,1.4c-0.7,0.4-1.6,0.7-2.8,1.1
			S-65.2,28.3-66.6,28.3z M-73.6,17.5h12.2c-0.1-0.9-0.2-1.7-0.5-2.5c-0.3-0.8-0.7-1.5-1.2-2c-0.5-0.6-1.1-1-1.8-1.4
			c-0.7-0.3-1.5-0.5-2.4-0.5c-0.9,0-1.7,0.2-2.4,0.5c-0.7,0.3-1.4,0.8-1.9,1.4s-1,1.3-1.3,2C-73.3,15.7-73.5,16.6-73.6,17.5z"/>
		<linearGradient id="SVGID_11_" gradientUnits="userSpaceOnUse" x1="-220.8983" y1="36.688" x2="-23.4777" y2="36.688">
			<stop  offset="0" style="stop-color:#F6871F"/>
			<stop  offset="0.35" style="stop-color:#ED1C24"/>
			<stop  offset="0.8" style="stop-color:#A43383"/>
			<stop  offset="1" style="stop-color:#0052A4"/>
		</linearGradient>
		<path class="st11" d="M-46.8,28.3c-1.5,0-2.9-0.2-4.1-0.7c-1.2-0.5-2.2-1.2-3-2.1c-0.8-0.9-1.4-1.9-1.9-3.1
			c-0.4-1.2-0.6-2.4-0.6-3.8c0-1.4,0.2-2.7,0.7-3.8c0.5-1.2,1.1-2.2,1.9-3.1c0.8-0.9,1.7-1.5,2.8-2c1.1-0.5,2.2-0.7,3.5-0.7
			c1.4,0,2.7,0.3,3.7,0.8c1.1,0.6,1.9,1.3,2.6,2.1c0.7,0.9,1.2,1.8,1.5,2.8c0.3,1,0.5,2,0.5,3c0,0.8,0,1.4-0.1,1.7h-14.6
			c0.1,1.1,0.3,2,0.6,2.8c0.4,0.8,0.9,1.5,1.5,2s1.3,1,2.2,1.3s1.7,0.4,2.6,0.4c0.8,0,1.5-0.1,2-0.2c0.6-0.1,1.1-0.3,1.6-0.4
			c0.5-0.2,0.9-0.3,1.2-0.4c0.3-0.1,0.6-0.2,0.9-0.2c0.4,0,0.7,0.2,0.9,0.5c0.2,0.4,0.3,0.8,0.2,1.4c-0.7,0.4-1.6,0.7-2.8,1.1
			S-45.4,28.3-46.8,28.3z M-53.8,17.5h12.2c-0.1-0.9-0.2-1.7-0.5-2.5c-0.3-0.8-0.7-1.5-1.2-2c-0.5-0.6-1.1-1-1.8-1.4
			c-0.7-0.3-1.5-0.5-2.4-0.5c-0.9,0-1.7,0.2-2.4,0.5c-0.7,0.3-1.4,0.8-1.9,1.4s-1,1.3-1.3,2C-53.5,15.7-53.7,16.6-53.8,17.5z"/>
		<linearGradient id="SVGID_12_" gradientUnits="userSpaceOnUse" x1="-220.8983" y1="36.688" x2="-23.4777" y2="36.688">
			<stop  offset="0" style="stop-color:#F6871F"/>
			<stop  offset="0.35" style="stop-color:#ED1C24"/>
			<stop  offset="0.8" style="stop-color:#A43383"/>
			<stop  offset="1" style="stop-color:#0052A4"/>
		</linearGradient>
		<path class="st12" d="M-28.5,28.1c-1.8,0-3.3-0.6-4.3-1.7c-1-1.1-1.5-2.5-1.5-4.3V11.5h-3c-0.1-0.2-0.1-0.6-0.1-1
			c0-0.4,0.1-0.7,0.3-0.9c0.2-0.2,0.4-0.2,0.6-0.2h2.3V5.6c0-0.4,0.1-0.7,0.3-1c0.2-0.3,0.6-0.5,1.2-0.5c0.2,0,0.3,0,0.5,0
			c0.2,0,0.4,0.1,0.5,0.1v5.1h7.1c0.1,0.2,0.1,0.6,0.1,1c0,0.4-0.1,0.7-0.3,0.9c-0.2,0.2-0.4,0.2-0.6,0.2h-6.3V22
			c0,1.2,0.3,2.1,0.9,2.8c0.6,0.7,1.5,1.1,2.7,1.1c0.5,0,0.9-0.1,1.3-0.2c0.4-0.1,0.7-0.2,1-0.4c0.3-0.1,0.6-0.2,0.8-0.4
			c0.2-0.1,0.5-0.2,0.7-0.2c0.4,0,0.6,0.1,0.8,0.4c0.2,0.3,0.3,0.7,0.2,1.4c-0.7,0.4-1.4,0.8-2.2,1.1C-26.6,28-27.5,28.1-28.5,28.1z
			"/>
		<linearGradient id="SVGID_13_" gradientUnits="userSpaceOnUse" x1="-220.8983" y1="36.688" x2="-23.4777" y2="36.688">
			<stop  offset="0" style="stop-color:#F6871F"/>
			<stop  offset="0.35" style="stop-color:#ED1C24"/>
			<stop  offset="0.8" style="stop-color:#A43383"/>
			<stop  offset="1" style="stop-color:#0052A4"/>
		</linearGradient>
		<path class="st13" d="M-194.3,72c-1.3,0-2.5-0.2-3.5-0.5c-1-0.3-1.9-0.7-2.6-1.3c-0.7-0.5-1.3-1.2-1.7-1.9
			c-0.4-0.7-0.6-1.5-0.6-2.3c0-0.9,0.3-1.8,0.8-2.6c0.5-0.8,1.3-1.5,2.3-2c-0.2-0.2-0.4-0.5-0.6-0.8c-0.2-0.3-0.3-0.7-0.3-1.1
			c0-0.5,0.1-1,0.4-1.4c0.3-0.5,0.7-0.8,1.3-0.9c-0.4-0.2-0.7-0.4-1.2-0.7c-0.4-0.3-0.8-0.7-1.1-1.1c-0.4-0.5-0.6-1-0.9-1.6
			s-0.4-1.4-0.4-2.2c0-1,0.2-1.9,0.5-2.7c0.4-0.8,0.9-1.5,1.5-2.1s1.5-1,2.4-1.4s2-0.5,3.2-0.5c1.5,0,2.7,0.3,3.9,0.8
			c0.9-0.2,1.8-0.3,2.7-0.5c0.9-0.2,1.8-0.3,2.7-0.5c0.1,0.1,0.2,0.3,0.4,0.5c0.1,0.2,0.2,0.4,0.2,0.7c0,0.4-0.1,0.7-0.3,0.9
			c-0.2,0.2-0.6,0.3-1,0.4c-0.4,0-0.9,0-1.4,0c-0.5,0-0.9,0-1.3,0l0,0c0.6,0.6,1.1,1.2,1.4,2c0.4,0.8,0.5,1.6,0.5,2.6
			c0,1.9-0.7,3.4-2,4.6c-1.3,1.2-3.2,1.8-5.6,1.8c-0.5,0-0.9,0-1.3-0.1c-0.4-0.1-0.7-0.1-0.9-0.1c-0.4,0.1-0.7,0.2-0.9,0.4
			c-0.2,0.2-0.4,0.5-0.4,0.8c0,0.4,0.2,0.8,0.7,1c0.5,0.2,1.1,0.4,1.9,0.5l5.2,0.7c1.9,0.3,3.2,0.8,4,1.6c0.8,0.8,1.2,1.8,1.2,3.1
			c0,0.9-0.2,1.7-0.6,2.4c-0.4,0.7-0.9,1.4-1.7,1.9c-0.8,0.5-1.7,1-2.9,1.3C-191.4,71.9-192.7,72-194.3,72z M-193.9,69.9
			c1,0,1.9-0.1,2.7-0.3c0.8-0.2,1.4-0.5,2-0.8c0.5-0.4,0.9-0.8,1.2-1.2c0.2-0.5,0.4-0.9,0.4-1.4c0-0.7-0.2-1.2-0.7-1.6
			c-0.4-0.4-1.3-0.7-2.5-0.9l-4.8-0.7c-0.7-0.1-1.2-0.2-1.6-0.3c-0.4-0.1-0.7-0.3-1-0.4c-0.7,0.4-1.2,0.8-1.5,1.4
			c-0.4,0.6-0.5,1.3-0.5,2c0.1,1.2,0.6,2.2,1.7,2.9C-197.5,69.5-195.9,69.9-193.9,69.9z M-194.6,56.1c1.6,0,2.8-0.4,3.8-1.1
			c0.9-0.8,1.4-1.9,1.4-3.4s-0.5-2.6-1.4-3.4c-0.9-0.8-2.2-1.2-3.7-1.2c-1.5,0-2.8,0.4-3.7,1.2c-0.9,0.8-1.4,2-1.4,3.4
			s0.5,2.6,1.4,3.4C-197.3,55.7-196.1,56.1-194.6,56.1z"/>
		<linearGradient id="SVGID_14_" gradientUnits="userSpaceOnUse" x1="-220.8983" y1="36.688" x2="-23.4777" y2="36.688">
			<stop  offset="0" style="stop-color:#F6871F"/>
			<stop  offset="0.35" style="stop-color:#ED1C24"/>
			<stop  offset="0.8" style="stop-color:#A43383"/>
			<stop  offset="1" style="stop-color:#0052A4"/>
		</linearGradient>
		<path class="st14" d="M-173.5,64.3c-1.5,0-2.9-0.2-4.1-0.7c-1.2-0.5-2.2-1.2-3-2.1c-0.8-0.9-1.4-1.9-1.9-3.1
			c-0.4-1.2-0.6-2.4-0.6-3.8c0-1.4,0.2-2.7,0.7-3.8c0.5-1.2,1.1-2.2,1.9-3.1c0.8-0.9,1.7-1.5,2.8-2c1.1-0.5,2.2-0.7,3.5-0.7
			c1.4,0,2.7,0.3,3.7,0.8c1.1,0.6,1.9,1.3,2.6,2.1c0.7,0.9,1.2,1.8,1.5,2.8c0.3,1,0.5,2,0.5,3c0,0.8,0,1.4-0.1,1.7h-14.6
			c0.1,1.1,0.3,2,0.6,2.8c0.4,0.8,0.9,1.5,1.5,2s1.3,1,2.2,1.3s1.7,0.4,2.6,0.4c0.8,0,1.5-0.1,2-0.2c0.6-0.1,1.1-0.3,1.6-0.4
			c0.5-0.2,0.9-0.3,1.2-0.4c0.3-0.1,0.6-0.2,0.9-0.2c0.4,0,0.7,0.2,0.9,0.5c0.2,0.4,0.3,0.8,0.2,1.4c-0.7,0.4-1.6,0.7-2.8,1.1
			S-172.1,64.3-173.5,64.3z M-180.5,53.5h12.2c-0.1-0.9-0.2-1.7-0.5-2.5c-0.3-0.8-0.7-1.5-1.2-2c-0.5-0.6-1.1-1-1.8-1.4
			c-0.7-0.3-1.5-0.5-2.4-0.5c-0.9,0-1.7,0.2-2.4,0.5c-0.7,0.3-1.4,0.8-1.9,1.4s-1,1.3-1.3,2C-180.2,51.7-180.4,52.6-180.5,53.5z"/>
		<linearGradient id="SVGID_15_" gradientUnits="userSpaceOnUse" x1="-220.8983" y1="36.688" x2="-23.4777" y2="36.688">
			<stop  offset="0" style="stop-color:#F6871F"/>
			<stop  offset="0.35" style="stop-color:#ED1C24"/>
			<stop  offset="0.8" style="stop-color:#A43383"/>
			<stop  offset="1" style="stop-color:#0052A4"/>
		</linearGradient>
		<path class="st15" d="M-160.7,64.1c-0.2,0-0.5,0-0.7,0c-0.2,0-0.4-0.1-0.5-0.1V45.4c0.4-0.1,0.8-0.2,1.1-0.2c1,0,1.5,0.6,1.5,1.7
			V48h0.1c0.7-0.9,1.5-1.7,2.6-2.2c1.1-0.6,2.3-0.9,3.7-0.9c2.3,0,4,0.7,5.2,2.2c1.2,1.4,1.8,3.3,1.8,5.7V63c0,0.3-0.1,0.6-0.3,0.8
			c-0.2,0.2-0.6,0.3-1.1,0.3c-0.2,0-0.5,0-0.7,0s-0.4-0.1-0.5-0.1V53c0-2-0.5-3.5-1.4-4.5c-0.9-0.9-2.2-1.4-3.7-1.4
			c-0.5,0-1.1,0.1-1.6,0.2c-0.6,0.2-1.1,0.4-1.6,0.7c-0.5,0.3-1,0.7-1.4,1.1c-0.4,0.4-0.8,0.9-1,1.4V63c0,0.3-0.1,0.6-0.3,0.8
			C-159.8,64-160.2,64.1-160.7,64.1z"/>
		<linearGradient id="SVGID_16_" gradientUnits="userSpaceOnUse" x1="-220.8983" y1="36.688" x2="-23.4777" y2="36.688">
			<stop  offset="0" style="stop-color:#F6871F"/>
			<stop  offset="0.35" style="stop-color:#ED1C24"/>
			<stop  offset="0.8" style="stop-color:#A43383"/>
			<stop  offset="1" style="stop-color:#0052A4"/>
		</linearGradient>
		<path class="st16" d="M-132.6,64.3c-1.5,0-2.9-0.2-4.1-0.7c-1.2-0.5-2.2-1.2-3-2.1c-0.8-0.9-1.4-1.9-1.9-3.1
			c-0.4-1.2-0.6-2.4-0.6-3.8c0-1.4,0.2-2.7,0.7-3.8c0.5-1.2,1.1-2.2,1.9-3.1c0.8-0.9,1.7-1.5,2.8-2c1.1-0.5,2.2-0.7,3.5-0.7
			c1.4,0,2.7,0.3,3.7,0.8c1.1,0.6,1.9,1.3,2.6,2.1c0.7,0.9,1.2,1.8,1.5,2.8c0.3,1,0.5,2,0.5,3c0,0.8,0,1.4-0.1,1.7h-14.6
			c0.1,1.1,0.3,2,0.6,2.8c0.4,0.8,0.9,1.5,1.5,2s1.3,1,2.2,1.3s1.7,0.4,2.6,0.4c0.8,0,1.5-0.1,2-0.2c0.6-0.1,1.1-0.3,1.6-0.4
			c0.5-0.2,0.9-0.3,1.2-0.4c0.3-0.1,0.6-0.2,0.9-0.2c0.4,0,0.7,0.2,0.9,0.5c0.2,0.4,0.3,0.8,0.2,1.4c-0.7,0.4-1.6,0.7-2.8,1.1
			S-131.2,64.3-132.6,64.3z M-139.6,53.5h12.2c-0.1-0.9-0.2-1.7-0.5-2.5c-0.3-0.8-0.7-1.5-1.2-2c-0.5-0.6-1.1-1-1.8-1.4
			c-0.7-0.3-1.5-0.5-2.4-0.5c-0.9,0-1.7,0.2-2.4,0.5c-0.7,0.3-1.4,0.8-1.9,1.4s-1,1.3-1.3,2C-139.3,51.7-139.5,52.6-139.6,53.5z"/>
		<linearGradient id="SVGID_17_" gradientUnits="userSpaceOnUse" x1="-220.8983" y1="36.688" x2="-23.4777" y2="36.688">
			<stop  offset="0" style="stop-color:#F6871F"/>
			<stop  offset="0.35" style="stop-color:#ED1C24"/>
			<stop  offset="0.8" style="stop-color:#A43383"/>
			<stop  offset="1" style="stop-color:#0052A4"/>
		</linearGradient>
		<path class="st17" d="M-119.8,64.1c-0.2,0-0.5,0-0.7,0c-0.2,0-0.4-0.1-0.5-0.1V45.4c0.4-0.1,0.8-0.2,1.1-0.2c1,0,1.5,0.6,1.5,1.7
			v1.8h0.1c0.6-1.4,1.4-2.4,2.5-2.9c1-0.6,2.2-0.8,3.4-0.8c0.8,0,1.5,0.1,2.1,0.3c0.1,0.8,0,1.4-0.3,1.7c-0.3,0.4-0.7,0.5-1.2,0.5
			c-0.8-0.1-1.6-0.1-2.4,0.1c-0.8,0.2-1.5,0.5-2.1,1c-0.6,0.5-1.1,1.1-1.5,2c-0.4,0.8-0.6,1.9-0.6,3.1V63c0,0.3-0.1,0.6-0.3,0.8
			C-118.9,64-119.3,64.1-119.8,64.1z"/>
		<linearGradient id="SVGID_18_" gradientUnits="userSpaceOnUse" x1="-220.8983" y1="36.688" x2="-23.4777" y2="36.688">
			<stop  offset="0" style="stop-color:#F6871F"/>
			<stop  offset="0.35" style="stop-color:#ED1C24"/>
			<stop  offset="0.8" style="stop-color:#A43383"/>
			<stop  offset="1" style="stop-color:#0052A4"/>
		</linearGradient>
		<path class="st18" d="M-102.7,64.2c-1.1,0-2-0.1-2.9-0.4c-0.8-0.3-1.5-0.7-2-1.2c-0.5-0.5-0.9-1.1-1.2-1.8
			c-0.3-0.7-0.4-1.4-0.4-2.2c0-1.8,0.6-3.2,1.9-4.3c1.3-1.1,3.3-1.6,6.1-1.6c1.6,0,3.4,0.2,5.5,0.6v-1.6c0-1.6-0.4-2.7-1.1-3.4
			s-2-1-3.7-1c-0.9,0-1.7,0.1-2.4,0.2c-0.7,0.1-1.2,0.2-1.7,0.4c-0.5,0.1-0.8,0.2-1.2,0.4c-0.3,0.1-0.6,0.2-0.9,0.2
			c-0.4,0-0.7-0.2-0.9-0.5c-0.2-0.4-0.3-0.9-0.2-1.5c0.6-0.2,1.6-0.5,2.9-0.7c1.3-0.3,2.7-0.4,4.3-0.4c1.4,0,2.6,0.2,3.5,0.5
			s1.7,0.8,2.2,1.5c0.5,0.6,0.9,1.4,1.2,2.3c0.2,0.9,0.3,2,0.3,3.1v4.1c0,0.9,0,1.6,0,2.3c0,0.7,0.1,1.2,0.2,1.8
			c0.1,0.5,0.2,1.1,0.4,1.6c0.2,0.5,0.4,1.1,0.6,1.7c-0.2,0.1-0.4,0.2-0.6,0.3c-0.2,0.1-0.4,0.1-0.7,0.1c-0.4,0-0.7-0.1-0.9-0.2
			s-0.4-0.4-0.5-0.6c-0.1-0.3-0.3-0.6-0.4-1.1c-0.1-0.5-0.2-1.1-0.3-1.7h-0.1c-0.7,1.1-1.6,2-2.8,2.7
			C-99.4,63.8-100.9,64.2-102.7,64.2z M-102.2,62c1.5,0,2.8-0.4,3.9-1.1c1.1-0.7,2-1.7,2.7-3V55c-2-0.4-3.6-0.5-5-0.5
			c-2,0-3.5,0.4-4.5,1.1c-1,0.7-1.5,1.7-1.5,2.9c0,1.1,0.4,1.9,1.2,2.6S-103.6,62-102.2,62z"/>
		<linearGradient id="SVGID_19_" gradientUnits="userSpaceOnUse" x1="-220.8983" y1="36.688" x2="-23.4777" y2="36.688">
			<stop  offset="0" style="stop-color:#F6871F"/>
			<stop  offset="0.35" style="stop-color:#ED1C24"/>
			<stop  offset="0.8" style="stop-color:#A43383"/>
			<stop  offset="1" style="stop-color:#0052A4"/>
		</linearGradient>
		<path class="st19" d="M-81.4,64.1c-1.8,0-3.3-0.6-4.3-1.7c-1-1.1-1.5-2.5-1.5-4.3V47.5h-3c-0.1-0.2-0.1-0.6-0.1-1
			c0-0.4,0.1-0.7,0.3-0.9c0.2-0.2,0.4-0.2,0.6-0.2h2.3v-3.8c0-0.4,0.1-0.7,0.3-1c0.2-0.3,0.6-0.5,1.2-0.5c0.2,0,0.3,0,0.5,0
			c0.2,0,0.4,0.1,0.5,0.1v5.1h7.1c0.1,0.2,0.1,0.6,0.1,1c0,0.4-0.1,0.7-0.3,0.9c-0.2,0.2-0.4,0.2-0.6,0.2h-6.3V58
			c0,1.2,0.3,2.1,0.9,2.8c0.6,0.7,1.5,1.1,2.7,1.1c0.5,0,0.9-0.1,1.3-0.2c0.4-0.1,0.7-0.2,1-0.4c0.3-0.1,0.6-0.2,0.8-0.4
			c0.2-0.1,0.5-0.2,0.7-0.2c0.4,0,0.6,0.1,0.8,0.4c0.2,0.3,0.3,0.7,0.2,1.4c-0.7,0.4-1.4,0.8-2.2,1.1C-79.4,64-80.3,64.1-81.4,64.1z
			"/>
		<linearGradient id="SVGID_20_" gradientUnits="userSpaceOnUse" x1="-220.8983" y1="36.688" x2="-23.4777" y2="36.688">
			<stop  offset="0" style="stop-color:#F6871F"/>
			<stop  offset="0.35" style="stop-color:#ED1C24"/>
			<stop  offset="0.8" style="stop-color:#A43383"/>
			<stop  offset="1" style="stop-color:#0052A4"/>
		</linearGradient>
		<path class="st20" d="M-65.1,64.2c-1.4,0-2.7-0.2-3.8-0.7c-1.1-0.5-2.1-1.2-2.9-2c-0.8-0.9-1.4-1.9-1.9-3
			c-0.4-1.2-0.7-2.4-0.7-3.8c0-1.3,0.2-2.5,0.7-3.7c0.4-1.2,1.1-2.2,1.9-3.1c0.8-0.9,1.8-1.6,2.9-2.1c1.1-0.5,2.4-0.8,3.8-0.8
			c1.4,0,2.7,0.3,3.8,0.8c1.1,0.5,2.1,1.2,2.9,2.1c0.8,0.9,1.4,1.9,1.9,3.1c0.4,1.2,0.6,2.4,0.6,3.7c0,1.3-0.2,2.6-0.6,3.7
			c-0.4,1.2-1,2.2-1.8,3.1c-0.8,0.9-1.8,1.6-2.9,2.1C-62.4,64-63.7,64.2-65.1,64.2z M-65.1,62c0.8,0,1.6-0.1,2.3-0.4
			c0.8-0.3,1.5-0.8,2.1-1.4c0.6-0.6,1.1-1.4,1.5-2.3c0.4-0.9,0.6-2,0.6-3.3c0-1.2-0.2-2.2-0.5-3.1c-0.4-0.9-0.8-1.7-1.4-2.3
			c-0.6-0.6-1.3-1.1-2.1-1.5c-0.8-0.3-1.6-0.5-2.5-0.5c-0.8,0-1.7,0.2-2.5,0.5c-0.8,0.3-1.5,0.8-2.2,1.5c-0.6,0.6-1.2,1.4-1.5,2.3
			c-0.4,0.9-0.6,2-0.6,3.1c0,1.2,0.2,2.3,0.6,3.3c0.4,0.9,0.9,1.7,1.5,2.3s1.4,1.1,2.2,1.4C-66.8,61.8-65.9,62-65.1,62z"/>
		<linearGradient id="SVGID_21_" gradientUnits="userSpaceOnUse" x1="-220.8983" y1="36.688" x2="-23.4777" y2="36.688">
			<stop  offset="0" style="stop-color:#F6871F"/>
			<stop  offset="0.35" style="stop-color:#ED1C24"/>
			<stop  offset="0.8" style="stop-color:#A43383"/>
			<stop  offset="1" style="stop-color:#0052A4"/>
		</linearGradient>
		<path class="st21" d="M-50.8,64.1c-0.2,0-0.5,0-0.7,0c-0.2,0-0.4-0.1-0.5-0.1V45.4c0.4-0.1,0.8-0.2,1.1-0.2c1,0,1.5,0.6,1.5,1.7
			v1.8h0.1c0.6-1.4,1.4-2.4,2.5-2.9c1-0.6,2.2-0.8,3.4-0.8c0.8,0,1.5,0.1,2.1,0.3c0.1,0.8,0,1.4-0.3,1.7c-0.3,0.4-0.7,0.5-1.2,0.5
			c-0.8-0.1-1.6-0.1-2.4,0.1c-0.8,0.2-1.5,0.5-2.1,1c-0.6,0.5-1.1,1.1-1.5,2c-0.4,0.8-0.6,1.9-0.6,3.1V63c0,0.3-0.1,0.6-0.3,0.8
			C-49.9,64-50.3,64.1-50.8,64.1z"/>
	</g>
	<g>
		<linearGradient id="SVGID_22_" gradientUnits="userSpaceOnUse" x1="-220.8983" y1="36.688" x2="-23.4777" y2="36.688">
			<stop  offset="0" style="stop-color:#F6871F"/>
			<stop  offset="0.35" style="stop-color:#ED1C24"/>
			<stop  offset="0.8" style="stop-color:#A43383"/>
			<stop  offset="1" style="stop-color:#0052A4"/>
		</linearGradient>
		<path class="st22" d="M-212.7,28.3c-1.2,0-2.5-0.1-3.9-0.3c-1.4-0.2-2.8-0.6-4.3-1.2c-0.1-0.6,0.1-1.2,0.4-1.5
			c0.3-0.4,0.7-0.5,1.2-0.5c0.3,0,0.7,0.1,1.1,0.2c0.4,0.1,0.9,0.2,1.5,0.4c0.6,0.1,1.2,0.3,1.9,0.4c0.7,0.1,1.6,0.2,2.5,0.2
			c1.1,0,2-0.1,2.8-0.4c0.8-0.3,1.4-0.6,1.9-1c0.5-0.4,0.9-0.9,1.1-1.5s0.4-1.2,0.4-1.8c0-1.3-0.4-2.3-1.2-2.9
			c-0.8-0.6-2-1.2-3.4-1.5l-3.5-1c-1.2-0.3-2.2-0.7-3-1.2c-0.8-0.5-1.5-1-2-1.6c-0.5-0.6-0.9-1.2-1.1-1.9c-0.2-0.7-0.4-1.4-0.4-2.2
			c0-0.8,0.1-1.5,0.4-2.3c0.3-0.8,0.7-1.5,1.4-2.1c0.6-0.6,1.5-1.2,2.6-1.6c1.1-0.4,2.4-0.6,4-0.6c1.3,0,2.5,0.1,3.8,0.3
			c1.2,0.2,2.6,0.6,3.9,1.1c0.1,0.6-0.1,1.2-0.4,1.5c-0.3,0.4-0.7,0.5-1.2,0.5c-0.3,0-0.6-0.1-0.9-0.2c-0.4-0.1-0.8-0.2-1.3-0.4
			c-0.5-0.1-1.1-0.3-1.8-0.4c-0.7-0.1-1.4-0.2-2.3-0.2c-1.1,0-2,0.1-2.7,0.4c-0.7,0.3-1.3,0.6-1.8,1c-0.4,0.4-0.8,0.9-0.9,1.4
			c-0.2,0.5-0.3,1-0.3,1.5c0,1.1,0.3,2,1,2.6s1.9,1.2,3.7,1.7l3.6,1c2.2,0.6,3.8,1.5,4.8,2.7c1,1.1,1.5,2.5,1.5,4.2
			c0,1.1-0.2,2.1-0.6,3s-0.9,1.7-1.7,2.3c-0.8,0.6-1.7,1.1-2.9,1.5C-209.7,28.1-211.1,28.3-212.7,28.3z"/>
		<linearGradient id="SVGID_23_" gradientUnits="userSpaceOnUse" x1="-220.8983" y1="36.688" x2="-23.4777" y2="36.688">
			<stop  offset="0" style="stop-color:#F6871F"/>
			<stop  offset="0.35" style="stop-color:#ED1C24"/>
			<stop  offset="0.8" style="stop-color:#A43383"/>
			<stop  offset="1" style="stop-color:#0052A4"/>
		</linearGradient>
		<path class="st23" d="M-198.1,35.3c-0.2,0-0.5,0-0.7,0c-0.2,0-0.4-0.1-0.5-0.1V9.4c0.4-0.1,0.8-0.2,1.1-0.2c1,0,1.5,0.6,1.5,1.7
			v1.3h0c0.8-1,1.6-1.9,2.7-2.5c1-0.6,2.3-0.9,3.8-0.9c1.2,0,2.3,0.2,3.3,0.7c1.1,0.5,2,1.1,2.8,2c0.8,0.9,1.4,1.9,1.9,3.1
			c0.5,1.2,0.7,2.5,0.7,4c0,1.7-0.3,3.1-0.8,4.3c-0.5,1.2-1.2,2.2-2,3c-0.8,0.8-1.8,1.4-2.8,1.7c-1,0.4-2.1,0.6-3.1,0.6
			c-1.5,0-2.8-0.3-3.9-0.9c-1.1-0.6-1.9-1.3-2.5-2v9c0,0.3-0.1,0.6-0.3,0.8C-197.2,35.2-197.6,35.3-198.1,35.3z M-190.8,26
			c0.9,0,1.8-0.2,2.6-0.5c0.8-0.3,1.5-0.8,2-1.4c0.6-0.6,1-1.4,1.3-2.3c0.3-0.9,0.5-2,0.5-3.1c0-1-0.1-1.9-0.4-2.8s-0.7-1.7-1.2-2.4
			c-0.5-0.7-1.2-1.3-2-1.7c-0.8-0.4-1.8-0.6-2.8-0.6c-1.2,0-2.3,0.3-3.4,1c-1.1,0.6-1.9,1.6-2.5,2.7v7.6c0.5,1,1.3,1.8,2.3,2.5
			C-193.4,25.7-192.2,26-190.8,26z"/>
		<linearGradient id="SVGID_24_" gradientUnits="userSpaceOnUse" x1="-220.8983" y1="36.688" x2="-23.4777" y2="36.688">
			<stop  offset="0" style="stop-color:#F6871F"/>
			<stop  offset="0.35" style="stop-color:#ED1C24"/>
			<stop  offset="0.8" style="stop-color:#A43383"/>
			<stop  offset="1" style="stop-color:#0052A4"/>
		</linearGradient>
		<path class="st24" d="M-176.5,28.1c-0.2,0-0.5,0-0.7,0c-0.2,0-0.4-0.1-0.5-0.1V9.4c0.4-0.1,0.8-0.2,1.1-0.2c1,0,1.5,0.6,1.5,1.7
			v1.8h0.1c0.6-1.4,1.4-2.4,2.5-2.9c1-0.6,2.2-0.8,3.4-0.8c0.8,0,1.5,0.1,2.1,0.3c0.1,0.8,0,1.4-0.3,1.7c-0.3,0.4-0.7,0.5-1.2,0.5
			c-0.8-0.1-1.6-0.1-2.4,0.1c-0.8,0.2-1.5,0.5-2.1,1c-0.6,0.5-1.1,1.1-1.5,2c-0.4,0.8-0.6,1.9-0.6,3.1V27c0,0.3-0.1,0.6-0.3,0.8
			C-175.6,28-176,28.1-176.5,28.1z"/>
		<linearGradient id="SVGID_25_" gradientUnits="userSpaceOnUse" x1="-220.8983" y1="36.688" x2="-23.4777" y2="36.688">
			<stop  offset="0" style="stop-color:#F6871F"/>
			<stop  offset="0.35" style="stop-color:#ED1C24"/>
			<stop  offset="0.8" style="stop-color:#A43383"/>
			<stop  offset="1" style="stop-color:#0052A4"/>
		</linearGradient>
		<path class="st25" d="M-163.2,4.8c-0.5,0-0.9-0.2-1.2-0.5c-0.3-0.3-0.5-0.7-0.5-1.2c0-0.5,0.2-0.9,0.5-1.2
			c0.3-0.3,0.7-0.5,1.2-0.5c0.5,0,0.9,0.2,1.2,0.5c0.3,0.3,0.5,0.7,0.5,1.2c0,0.4-0.2,0.8-0.5,1.2C-162.3,4.6-162.7,4.8-163.2,4.8z
			 M-163.3,28.1c-0.2,0-0.5,0-0.7,0s-0.4-0.1-0.5-0.1V10.3c0-0.3,0.1-0.6,0.3-0.8c0.2-0.2,0.6-0.3,1.1-0.3c0.2,0,0.5,0,0.7,0
			c0.2,0,0.4,0.1,0.5,0.1V27c0,0.3-0.1,0.6-0.3,0.8C-162.4,28-162.8,28.1-163.3,28.1z"/>
		<linearGradient id="SVGID_26_" gradientUnits="userSpaceOnUse" x1="-220.8983" y1="36.688" x2="-23.4777" y2="36.688">
			<stop  offset="0" style="stop-color:#F6871F"/>
			<stop  offset="0.35" style="stop-color:#ED1C24"/>
			<stop  offset="0.8" style="stop-color:#A43383"/>
			<stop  offset="1" style="stop-color:#0052A4"/>
		</linearGradient>
		<path class="st26" d="M-149.7,28.1c-1.8,0-3.3-0.6-4.3-1.7c-1-1.1-1.5-2.5-1.5-4.3V11.5h-3c-0.1-0.2-0.1-0.6-0.1-1
			c0-0.4,0.1-0.7,0.3-0.9c0.2-0.2,0.4-0.2,0.6-0.2h2.3V5.6c0-0.4,0.1-0.7,0.3-1c0.2-0.3,0.6-0.5,1.2-0.5c0.2,0,0.3,0,0.5,0
			c0.2,0,0.4,0.1,0.5,0.1v5.1h7.1c0.1,0.2,0.1,0.6,0.1,1c0,0.4-0.1,0.7-0.3,0.9c-0.2,0.2-0.4,0.2-0.6,0.2h-6.3V22
			c0,1.2,0.3,2.1,0.9,2.8c0.6,0.7,1.5,1.1,2.7,1.1c0.5,0,0.9-0.1,1.3-0.2c0.4-0.1,0.7-0.2,1-0.4c0.3-0.1,0.6-0.2,0.8-0.4
			c0.2-0.1,0.5-0.2,0.7-0.2c0.4,0,0.6,0.1,0.8,0.4c0.2,0.3,0.3,0.7,0.2,1.4c-0.7,0.4-1.4,0.8-2.2,1.1
			C-147.7,28-148.7,28.1-149.7,28.1z"/>
		<linearGradient id="SVGID_27_" gradientUnits="userSpaceOnUse" x1="-220.8983" y1="36.688" x2="-23.4777" y2="36.688">
			<stop  offset="0" style="stop-color:#F6871F"/>
			<stop  offset="0.35" style="stop-color:#ED1C24"/>
			<stop  offset="0.8" style="stop-color:#A43383"/>
			<stop  offset="1" style="stop-color:#0052A4"/>
		</linearGradient>
		<path class="st27" d="M-133.2,28.3c-1.5,0-2.9-0.2-4.1-0.7c-1.2-0.5-2.2-1.2-3-2.1c-0.8-0.9-1.4-1.9-1.9-3.1
			c-0.4-1.2-0.6-2.4-0.6-3.8c0-1.4,0.2-2.7,0.7-3.8c0.5-1.2,1.1-2.2,1.9-3.1c0.8-0.9,1.7-1.5,2.8-2c1.1-0.5,2.2-0.7,3.5-0.7
			c1.4,0,2.7,0.3,3.7,0.8c1.1,0.6,1.9,1.3,2.6,2.1c0.7,0.9,1.2,1.8,1.5,2.8c0.3,1,0.5,2,0.5,3c0,0.8,0,1.4-0.1,1.7h-14.6
			c0.1,1.1,0.3,2,0.6,2.8c0.4,0.8,0.9,1.5,1.5,2s1.3,1,2.2,1.3s1.7,0.4,2.6,0.4c0.8,0,1.5-0.1,2-0.2c0.6-0.1,1.1-0.3,1.6-0.4
			c0.5-0.2,0.9-0.3,1.2-0.4c0.3-0.1,0.6-0.2,0.9-0.2c0.4,0,0.7,0.2,0.9,0.5c0.2,0.4,0.3,0.8,0.2,1.4c-0.7,0.4-1.6,0.7-2.8,1.1
			S-131.7,28.3-133.2,28.3z M-140.2,17.5h12.2c-0.1-0.9-0.2-1.7-0.5-2.5c-0.3-0.8-0.7-1.5-1.2-2c-0.5-0.6-1.1-1-1.8-1.4
			c-0.7-0.3-1.5-0.5-2.4-0.5c-0.9,0-1.7,0.2-2.4,0.5c-0.7,0.3-1.4,0.8-1.9,1.4s-1,1.3-1.3,2C-139.9,15.7-140.1,16.6-140.2,17.5z"/>
		<linearGradient id="SVGID_28_" gradientUnits="userSpaceOnUse" x1="-220.8983" y1="36.688" x2="-23.4777" y2="36.688">
			<stop  offset="0" style="stop-color:#F6871F"/>
			<stop  offset="0.35" style="stop-color:#ED1C24"/>
			<stop  offset="0.8" style="stop-color:#A43383"/>
			<stop  offset="1" style="stop-color:#0052A4"/>
		</linearGradient>
		<path class="st28" d="M-107.5,28.1c-1.3,0-2.6-0.1-3.8-0.4c-1.2-0.3-2.4-0.6-3.6-1.1c-0.1-0.6-0.1-1,0.1-1.4
			c0.2-0.4,0.5-0.5,0.9-0.5c0.3,0,0.6,0.1,1,0.2c0.4,0.1,0.9,0.3,1.4,0.4c0.5,0.1,1.1,0.3,1.8,0.4c0.7,0.1,1.4,0.2,2.2,0.2
			c1.1,0,1.9-0.1,2.6-0.3c0.6-0.2,1.1-0.4,1.5-0.8c0.3-0.3,0.6-0.6,0.7-1c0.1-0.4,0.2-0.7,0.2-1c0-0.8-0.3-1.4-0.8-1.8
			c-0.6-0.4-1.5-0.8-2.9-1.2l-3.3-0.9c-1.9-0.5-3.2-1.2-4-2c-0.8-0.8-1.2-1.8-1.2-2.9c0-0.6,0.1-1.3,0.4-1.9s0.6-1.2,1.2-1.7
			c0.6-0.5,1.3-0.9,2.2-1.2c0.9-0.3,2.1-0.4,3.4-0.4c1.2,0,2.3,0.1,3.4,0.3c1.1,0.2,2.2,0.5,3.4,0.9c0.2,1.3-0.2,1.9-1.1,1.9
			c-0.2,0-0.5-0.1-0.9-0.2c-0.3-0.1-0.7-0.2-1.2-0.4c-0.5-0.1-1-0.2-1.6-0.4s-1.3-0.2-2-0.2c-1.7,0-2.9,0.3-3.6,0.8
			c-0.7,0.5-1.1,1.2-1.1,2c0,0.3,0,0.6,0.1,0.9c0.1,0.3,0.2,0.5,0.5,0.8c0.2,0.2,0.6,0.5,1.1,0.7c0.5,0.2,1.1,0.4,1.8,0.6l3.2,0.9
			c1.1,0.3,2,0.6,2.7,0.9c0.7,0.3,1.3,0.7,1.7,1.1c0.4,0.4,0.8,0.9,1,1.4c0.2,0.5,0.3,1.1,0.3,1.7c0,0.6-0.1,1.2-0.3,1.8
			c-0.2,0.6-0.6,1.2-1.1,1.7c-0.5,0.5-1.3,0.9-2.3,1.3C-104.7,28-106,28.1-107.5,28.1z"/>
		<linearGradient id="SVGID_29_" gradientUnits="userSpaceOnUse" x1="-220.8983" y1="36.688" x2="-23.4777" y2="36.688">
			<stop  offset="0" style="stop-color:#F6871F"/>
			<stop  offset="0.35" style="stop-color:#ED1C24"/>
			<stop  offset="0.8" style="stop-color:#A43383"/>
			<stop  offset="1" style="stop-color:#0052A4"/>
		</linearGradient>
		<path class="st29" d="M-94.7,28.1c-0.2,0-0.5,0-0.7,0c-0.2,0-0.4-0.1-0.5-0.1V2.4c0-0.3,0.1-0.6,0.3-0.8c0.2-0.2,0.6-0.3,1.1-0.3
			c0.2,0,0.5,0,0.7,0c0.2,0,0.4,0.1,0.5,0.1V12c0.7-0.8,1.5-1.6,2.6-2.2c1-0.6,2.3-0.9,3.8-0.9c0.9,0,1.8,0.2,2.7,0.5
			c0.8,0.3,1.6,0.8,2.2,1.4c0.6,0.6,1.1,1.5,1.5,2.5c0.4,1,0.6,2.2,0.6,3.6V27c0,0.3-0.1,0.6-0.3,0.8c-0.2,0.2-0.6,0.3-1.1,0.3
			c-0.2,0-0.5,0-0.7,0s-0.4-0.1-0.5-0.1V17.1c0-2-0.5-3.5-1.4-4.5c-0.9-1-2.2-1.5-3.7-1.5c-1.2,0-2.3,0.3-3.3,1
			c-1,0.6-1.8,1.5-2.3,2.4V27c0,0.3-0.1,0.6-0.3,0.8C-93.8,28-94.2,28.1-94.7,28.1z"/>
		<linearGradient id="SVGID_30_" gradientUnits="userSpaceOnUse" x1="-220.8983" y1="36.688" x2="-23.4777" y2="36.688">
			<stop  offset="0" style="stop-color:#F6871F"/>
			<stop  offset="0.35" style="stop-color:#ED1C24"/>
			<stop  offset="0.8" style="stop-color:#A43383"/>
			<stop  offset="1" style="stop-color:#0052A4"/>
		</linearGradient>
		<path class="st30" d="M-66.6,28.3c-1.5,0-2.9-0.2-4.1-0.7c-1.2-0.5-2.2-1.2-3-2.1c-0.8-0.9-1.4-1.9-1.9-3.1
			c-0.4-1.2-0.6-2.4-0.6-3.8c0-1.4,0.2-2.7,0.7-3.8c0.5-1.2,1.1-2.2,1.9-3.1c0.8-0.9,1.7-1.5,2.8-2c1.1-0.5,2.2-0.7,3.5-0.7
			c1.4,0,2.7,0.3,3.7,0.8c1.1,0.6,1.9,1.3,2.6,2.1c0.7,0.9,1.2,1.8,1.5,2.8c0.3,1,0.5,2,0.5,3c0,0.8,0,1.4-0.1,1.7h-14.6
			c0.1,1.1,0.3,2,0.6,2.8c0.4,0.8,0.9,1.5,1.5,2s1.3,1,2.2,1.3s1.7,0.4,2.6,0.4c0.8,0,1.5-0.1,2-0.2c0.6-0.1,1.1-0.3,1.6-0.4
			c0.5-0.2,0.9-0.3,1.2-0.4c0.3-0.1,0.6-0.2,0.9-0.2c0.4,0,0.7,0.2,0.9,0.5c0.2,0.4,0.3,0.8,0.2,1.4c-0.7,0.4-1.6,0.7-2.8,1.1
			S-65.2,28.3-66.6,28.3z M-73.6,17.5h12.2c-0.1-0.9-0.2-1.7-0.5-2.5c-0.3-0.8-0.7-1.5-1.2-2c-0.5-0.6-1.1-1-1.8-1.4
			c-0.7-0.3-1.5-0.5-2.4-0.5c-0.9,0-1.7,0.2-2.4,0.5c-0.7,0.3-1.4,0.8-1.9,1.4s-1,1.3-1.3,2C-73.3,15.7-73.5,16.6-73.6,17.5z"/>
		<linearGradient id="SVGID_31_" gradientUnits="userSpaceOnUse" x1="-220.8983" y1="36.688" x2="-23.4777" y2="36.688">
			<stop  offset="0" style="stop-color:#F6871F"/>
			<stop  offset="0.35" style="stop-color:#ED1C24"/>
			<stop  offset="0.8" style="stop-color:#A43383"/>
			<stop  offset="1" style="stop-color:#0052A4"/>
		</linearGradient>
		<path class="st31" d="M-46.8,28.3c-1.5,0-2.9-0.2-4.1-0.7c-1.2-0.5-2.2-1.2-3-2.1c-0.8-0.9-1.4-1.9-1.9-3.1
			c-0.4-1.2-0.6-2.4-0.6-3.8c0-1.4,0.2-2.7,0.7-3.8c0.5-1.2,1.1-2.2,1.9-3.1c0.8-0.9,1.7-1.5,2.8-2c1.1-0.5,2.2-0.7,3.5-0.7
			c1.4,0,2.7,0.3,3.7,0.8c1.1,0.6,1.9,1.3,2.6,2.1c0.7,0.9,1.2,1.8,1.5,2.8c0.3,1,0.5,2,0.5,3c0,0.8,0,1.4-0.1,1.7h-14.6
			c0.1,1.1,0.3,2,0.6,2.8c0.4,0.8,0.9,1.5,1.5,2s1.3,1,2.2,1.3s1.7,0.4,2.6,0.4c0.8,0,1.5-0.1,2-0.2c0.6-0.1,1.1-0.3,1.6-0.4
			c0.5-0.2,0.9-0.3,1.2-0.4c0.3-0.1,0.6-0.2,0.9-0.2c0.4,0,0.7,0.2,0.9,0.5c0.2,0.4,0.3,0.8,0.2,1.4c-0.7,0.4-1.6,0.7-2.8,1.1
			S-45.4,28.3-46.8,28.3z M-53.8,17.5h12.2c-0.1-0.9-0.2-1.7-0.5-2.5c-0.3-0.8-0.7-1.5-1.2-2c-0.5-0.6-1.1-1-1.8-1.4
			c-0.7-0.3-1.5-0.5-2.4-0.5c-0.9,0-1.7,0.2-2.4,0.5c-0.7,0.3-1.4,0.8-1.9,1.4s-1,1.3-1.3,2C-53.5,15.7-53.7,16.6-53.8,17.5z"/>
		<linearGradient id="SVGID_32_" gradientUnits="userSpaceOnUse" x1="-220.8983" y1="36.688" x2="-23.4777" y2="36.688">
			<stop  offset="0" style="stop-color:#F6871F"/>
			<stop  offset="0.35" style="stop-color:#ED1C24"/>
			<stop  offset="0.8" style="stop-color:#A43383"/>
			<stop  offset="1" style="stop-color:#0052A4"/>
		</linearGradient>
		<path class="st32" d="M-28.5,28.1c-1.8,0-3.3-0.6-4.3-1.7c-1-1.1-1.5-2.5-1.5-4.3V11.5h-3c-0.1-0.2-0.1-0.6-0.1-1
			c0-0.4,0.1-0.7,0.3-0.9c0.2-0.2,0.4-0.2,0.6-0.2h2.3V5.6c0-0.4,0.1-0.7,0.3-1c0.2-0.3,0.6-0.5,1.2-0.5c0.2,0,0.3,0,0.5,0
			c0.2,0,0.4,0.1,0.5,0.1v5.1h7.1c0.1,0.2,0.1,0.6,0.1,1c0,0.4-0.1,0.7-0.3,0.9c-0.2,0.2-0.4,0.2-0.6,0.2h-6.3V22
			c0,1.2,0.3,2.1,0.9,2.8c0.6,0.7,1.5,1.1,2.7,1.1c0.5,0,0.9-0.1,1.3-0.2c0.4-0.1,0.7-0.2,1-0.4c0.3-0.1,0.6-0.2,0.8-0.4
			c0.2-0.1,0.5-0.2,0.7-0.2c0.4,0,0.6,0.1,0.8,0.4c0.2,0.3,0.3,0.7,0.2,1.4c-0.7,0.4-1.4,0.8-2.2,1.1C-26.6,28-27.5,28.1-28.5,28.1z
			"/>
		<linearGradient id="SVGID_33_" gradientUnits="userSpaceOnUse" x1="-220.8983" y1="36.688" x2="-23.4777" y2="36.688">
			<stop  offset="0" style="stop-color:#F6871F"/>
			<stop  offset="0.35" style="stop-color:#ED1C24"/>
			<stop  offset="0.8" style="stop-color:#A43383"/>
			<stop  offset="1" style="stop-color:#0052A4"/>
		</linearGradient>
		<path class="st33" d="M-194.3,72c-1.3,0-2.5-0.2-3.5-0.5c-1-0.3-1.9-0.7-2.6-1.3c-0.7-0.5-1.3-1.2-1.7-1.9
			c-0.4-0.7-0.6-1.5-0.6-2.3c0-0.9,0.3-1.8,0.8-2.6c0.5-0.8,1.3-1.5,2.3-2c-0.2-0.2-0.4-0.5-0.6-0.8c-0.2-0.3-0.3-0.7-0.3-1.1
			c0-0.5,0.1-1,0.4-1.4c0.3-0.5,0.7-0.8,1.3-0.9c-0.4-0.2-0.7-0.4-1.2-0.7c-0.4-0.3-0.8-0.7-1.1-1.1c-0.4-0.5-0.6-1-0.9-1.6
			s-0.4-1.4-0.4-2.2c0-1,0.2-1.9,0.5-2.7c0.4-0.8,0.9-1.5,1.5-2.1s1.5-1,2.4-1.4s2-0.5,3.2-0.5c1.5,0,2.7,0.3,3.9,0.8
			c0.9-0.2,1.8-0.3,2.7-0.5c0.9-0.2,1.8-0.3,2.7-0.5c0.1,0.1,0.2,0.3,0.4,0.5c0.1,0.2,0.2,0.4,0.2,0.7c0,0.4-0.1,0.7-0.3,0.9
			c-0.2,0.2-0.6,0.3-1,0.4c-0.4,0-0.9,0-1.4,0c-0.5,0-0.9,0-1.3,0l0,0c0.6,0.6,1.1,1.2,1.4,2c0.4,0.8,0.5,1.6,0.5,2.6
			c0,1.9-0.7,3.4-2,4.6c-1.3,1.2-3.2,1.8-5.6,1.8c-0.5,0-0.9,0-1.3-0.1c-0.4-0.1-0.7-0.1-0.9-0.1c-0.4,0.1-0.7,0.2-0.9,0.4
			c-0.2,0.2-0.4,0.5-0.4,0.8c0,0.4,0.2,0.8,0.7,1c0.5,0.2,1.1,0.4,1.9,0.5l5.2,0.7c1.9,0.3,3.2,0.8,4,1.6c0.8,0.8,1.2,1.8,1.2,3.1
			c0,0.9-0.2,1.7-0.6,2.4c-0.4,0.7-0.9,1.4-1.7,1.9c-0.8,0.5-1.7,1-2.9,1.3C-191.4,71.9-192.7,72-194.3,72z M-193.9,69.9
			c1,0,1.9-0.1,2.7-0.3c0.8-0.2,1.4-0.5,2-0.8c0.5-0.4,0.9-0.8,1.2-1.2c0.2-0.5,0.4-0.9,0.4-1.4c0-0.7-0.2-1.2-0.7-1.6
			c-0.4-0.4-1.3-0.7-2.5-0.9l-4.8-0.7c-0.7-0.1-1.2-0.2-1.6-0.3c-0.4-0.1-0.7-0.3-1-0.4c-0.7,0.4-1.2,0.8-1.5,1.4
			c-0.4,0.6-0.5,1.3-0.5,2c0.1,1.2,0.6,2.2,1.7,2.9C-197.5,69.5-195.9,69.9-193.9,69.9z M-194.6,56.1c1.6,0,2.8-0.4,3.8-1.1
			c0.9-0.8,1.4-1.9,1.4-3.4s-0.5-2.6-1.4-3.4c-0.9-0.8-2.2-1.2-3.7-1.2c-1.5,0-2.8,0.4-3.7,1.2c-0.9,0.8-1.4,2-1.4,3.4
			s0.5,2.6,1.4,3.4C-197.3,55.7-196.1,56.1-194.6,56.1z"/>
		<linearGradient id="SVGID_34_" gradientUnits="userSpaceOnUse" x1="-220.8983" y1="36.688" x2="-23.4777" y2="36.688">
			<stop  offset="0" style="stop-color:#F6871F"/>
			<stop  offset="0.35" style="stop-color:#ED1C24"/>
			<stop  offset="0.8" style="stop-color:#A43383"/>
			<stop  offset="1" style="stop-color:#0052A4"/>
		</linearGradient>
		<path class="st34" d="M-173.5,64.3c-1.5,0-2.9-0.2-4.1-0.7c-1.2-0.5-2.2-1.2-3-2.1c-0.8-0.9-1.4-1.9-1.9-3.1
			c-0.4-1.2-0.6-2.4-0.6-3.8c0-1.4,0.2-2.7,0.7-3.8c0.5-1.2,1.1-2.2,1.9-3.1c0.8-0.9,1.7-1.5,2.8-2c1.1-0.5,2.2-0.7,3.5-0.7
			c1.4,0,2.7,0.3,3.7,0.8c1.1,0.6,1.9,1.3,2.6,2.1c0.7,0.9,1.2,1.8,1.5,2.8c0.3,1,0.5,2,0.5,3c0,0.8,0,1.4-0.1,1.7h-14.6
			c0.1,1.1,0.3,2,0.6,2.8c0.4,0.8,0.9,1.5,1.5,2s1.3,1,2.2,1.3s1.7,0.4,2.6,0.4c0.8,0,1.5-0.1,2-0.2c0.6-0.1,1.1-0.3,1.6-0.4
			c0.5-0.2,0.9-0.3,1.2-0.4c0.3-0.1,0.6-0.2,0.9-0.2c0.4,0,0.7,0.2,0.9,0.5c0.2,0.4,0.3,0.8,0.2,1.4c-0.7,0.4-1.6,0.7-2.8,1.1
			S-172.1,64.3-173.5,64.3z M-180.5,53.5h12.2c-0.1-0.9-0.2-1.7-0.5-2.5c-0.3-0.8-0.7-1.5-1.2-2c-0.5-0.6-1.1-1-1.8-1.4
			c-0.7-0.3-1.5-0.5-2.4-0.5c-0.9,0-1.7,0.2-2.4,0.5c-0.7,0.3-1.4,0.8-1.9,1.4s-1,1.3-1.3,2C-180.2,51.7-180.4,52.6-180.5,53.5z"/>
		<linearGradient id="SVGID_35_" gradientUnits="userSpaceOnUse" x1="-220.8983" y1="36.688" x2="-23.4777" y2="36.688">
			<stop  offset="0" style="stop-color:#F6871F"/>
			<stop  offset="0.35" style="stop-color:#ED1C24"/>
			<stop  offset="0.8" style="stop-color:#A43383"/>
			<stop  offset="1" style="stop-color:#0052A4"/>
		</linearGradient>
		<path class="st35" d="M-160.7,64.1c-0.2,0-0.5,0-0.7,0c-0.2,0-0.4-0.1-0.5-0.1V45.4c0.4-0.1,0.8-0.2,1.1-0.2c1,0,1.5,0.6,1.5,1.7
			V48h0.1c0.7-0.9,1.5-1.7,2.6-2.2c1.1-0.6,2.3-0.9,3.7-0.9c2.3,0,4,0.7,5.2,2.2c1.2,1.4,1.8,3.3,1.8,5.7V63c0,0.3-0.1,0.6-0.3,0.8
			c-0.2,0.2-0.6,0.3-1.1,0.3c-0.2,0-0.5,0-0.7,0s-0.4-0.1-0.5-0.1V53c0-2-0.5-3.5-1.4-4.5c-0.9-0.9-2.2-1.4-3.7-1.4
			c-0.5,0-1.1,0.1-1.6,0.2c-0.6,0.2-1.1,0.4-1.6,0.7c-0.5,0.3-1,0.7-1.4,1.1c-0.4,0.4-0.8,0.9-1,1.4V63c0,0.3-0.1,0.6-0.3,0.8
			C-159.8,64-160.2,64.1-160.7,64.1z"/>
		<linearGradient id="SVGID_36_" gradientUnits="userSpaceOnUse" x1="-220.8983" y1="36.688" x2="-23.4777" y2="36.688">
			<stop  offset="0" style="stop-color:#F6871F"/>
			<stop  offset="0.35" style="stop-color:#ED1C24"/>
			<stop  offset="0.8" style="stop-color:#A43383"/>
			<stop  offset="1" style="stop-color:#0052A4"/>
		</linearGradient>
		<path class="st36" d="M-132.6,64.3c-1.5,0-2.9-0.2-4.1-0.7c-1.2-0.5-2.2-1.2-3-2.1c-0.8-0.9-1.4-1.9-1.9-3.1
			c-0.4-1.2-0.6-2.4-0.6-3.8c0-1.4,0.2-2.7,0.7-3.8c0.5-1.2,1.1-2.2,1.9-3.1c0.8-0.9,1.7-1.5,2.8-2c1.1-0.5,2.2-0.7,3.5-0.7
			c1.4,0,2.7,0.3,3.7,0.8c1.1,0.6,1.9,1.3,2.6,2.1c0.7,0.9,1.2,1.8,1.5,2.8c0.3,1,0.5,2,0.5,3c0,0.8,0,1.4-0.1,1.7h-14.6
			c0.1,1.1,0.3,2,0.6,2.8c0.4,0.8,0.9,1.5,1.5,2s1.3,1,2.2,1.3s1.7,0.4,2.6,0.4c0.8,0,1.5-0.1,2-0.2c0.6-0.1,1.1-0.3,1.6-0.4
			c0.5-0.2,0.9-0.3,1.2-0.4c0.3-0.1,0.6-0.2,0.9-0.2c0.4,0,0.7,0.2,0.9,0.5c0.2,0.4,0.3,0.8,0.2,1.4c-0.7,0.4-1.6,0.7-2.8,1.1
			S-131.2,64.3-132.6,64.3z M-139.6,53.5h12.2c-0.1-0.9-0.2-1.7-0.5-2.5c-0.3-0.8-0.7-1.5-1.2-2c-0.5-0.6-1.1-1-1.8-1.4
			c-0.7-0.3-1.5-0.5-2.4-0.5c-0.9,0-1.7,0.2-2.4,0.5c-0.7,0.3-1.4,0.8-1.9,1.4s-1,1.3-1.3,2C-139.3,51.7-139.5,52.6-139.6,53.5z"/>
		<linearGradient id="SVGID_37_" gradientUnits="userSpaceOnUse" x1="-220.8983" y1="36.688" x2="-23.4777" y2="36.688">
			<stop  offset="0" style="stop-color:#F6871F"/>
			<stop  offset="0.35" style="stop-color:#ED1C24"/>
			<stop  offset="0.8" style="stop-color:#A43383"/>
			<stop  offset="1" style="stop-color:#0052A4"/>
		</linearGradient>
		<path class="st37" d="M-119.8,64.1c-0.2,0-0.5,0-0.7,0c-0.2,0-0.4-0.1-0.5-0.1V45.4c0.4-0.1,0.8-0.2,1.1-0.2c1,0,1.5,0.6,1.5,1.7
			v1.8h0.1c0.6-1.4,1.4-2.4,2.5-2.9c1-0.6,2.2-0.8,3.4-0.8c0.8,0,1.5,0.1,2.1,0.3c0.1,0.8,0,1.4-0.3,1.7c-0.3,0.4-0.7,0.5-1.2,0.5
			c-0.8-0.1-1.6-0.1-2.4,0.1c-0.8,0.2-1.5,0.5-2.1,1c-0.6,0.5-1.1,1.1-1.5,2c-0.4,0.8-0.6,1.9-0.6,3.1V63c0,0.3-0.1,0.6-0.3,0.8
			C-118.9,64-119.3,64.1-119.8,64.1z"/>
		<linearGradient id="SVGID_38_" gradientUnits="userSpaceOnUse" x1="-220.8983" y1="36.688" x2="-23.4777" y2="36.688">
			<stop  offset="0" style="stop-color:#F6871F"/>
			<stop  offset="0.35" style="stop-color:#ED1C24"/>
			<stop  offset="0.8" style="stop-color:#A43383"/>
			<stop  offset="1" style="stop-color:#0052A4"/>
		</linearGradient>
		<path class="st38" d="M-102.7,64.2c-1.1,0-2-0.1-2.9-0.4c-0.8-0.3-1.5-0.7-2-1.2c-0.5-0.5-0.9-1.1-1.2-1.8
			c-0.3-0.7-0.4-1.4-0.4-2.2c0-1.8,0.6-3.2,1.9-4.3c1.3-1.1,3.3-1.6,6.1-1.6c1.6,0,3.4,0.2,5.5,0.6v-1.6c0-1.6-0.4-2.7-1.1-3.4
			s-2-1-3.7-1c-0.9,0-1.7,0.1-2.4,0.2c-0.7,0.1-1.2,0.2-1.7,0.4c-0.5,0.1-0.8,0.2-1.2,0.4c-0.3,0.1-0.6,0.2-0.9,0.2
			c-0.4,0-0.7-0.2-0.9-0.5c-0.2-0.4-0.3-0.9-0.2-1.5c0.6-0.2,1.6-0.5,2.9-0.7c1.3-0.3,2.7-0.4,4.3-0.4c1.4,0,2.6,0.2,3.5,0.5
			s1.7,0.8,2.2,1.5c0.5,0.6,0.9,1.4,1.2,2.3c0.2,0.9,0.3,2,0.3,3.1v4.1c0,0.9,0,1.6,0,2.3c0,0.7,0.1,1.2,0.2,1.8
			c0.1,0.5,0.2,1.1,0.4,1.6c0.2,0.5,0.4,1.1,0.6,1.7c-0.2,0.1-0.4,0.2-0.6,0.3c-0.2,0.1-0.4,0.1-0.7,0.1c-0.4,0-0.7-0.1-0.9-0.2
			s-0.4-0.4-0.5-0.6c-0.1-0.3-0.3-0.6-0.4-1.1c-0.1-0.5-0.2-1.1-0.3-1.7h-0.1c-0.7,1.1-1.6,2-2.8,2.7
			C-99.4,63.8-100.9,64.2-102.7,64.2z M-102.2,62c1.5,0,2.8-0.4,3.9-1.1c1.1-0.7,2-1.7,2.7-3V55c-2-0.4-3.6-0.5-5-0.5
			c-2,0-3.5,0.4-4.5,1.1c-1,0.7-1.5,1.7-1.5,2.9c0,1.1,0.4,1.9,1.2,2.6S-103.6,62-102.2,62z"/>
		<linearGradient id="SVGID_39_" gradientUnits="userSpaceOnUse" x1="-220.8983" y1="36.688" x2="-23.4777" y2="36.688">
			<stop  offset="0" style="stop-color:#F6871F"/>
			<stop  offset="0.35" style="stop-color:#ED1C24"/>
			<stop  offset="0.8" style="stop-color:#A43383"/>
			<stop  offset="1" style="stop-color:#0052A4"/>
		</linearGradient>
		<path class="st39" d="M-81.4,64.1c-1.8,0-3.3-0.6-4.3-1.7c-1-1.1-1.5-2.5-1.5-4.3V47.5h-3c-0.1-0.2-0.1-0.6-0.1-1
			c0-0.4,0.1-0.7,0.3-0.9c0.2-0.2,0.4-0.2,0.6-0.2h2.3v-3.8c0-0.4,0.1-0.7,0.3-1c0.2-0.3,0.6-0.5,1.2-0.5c0.2,0,0.3,0,0.5,0
			c0.2,0,0.4,0.1,0.5,0.1v5.1h7.1c0.1,0.2,0.1,0.6,0.1,1c0,0.4-0.1,0.7-0.3,0.9c-0.2,0.2-0.4,0.2-0.6,0.2h-6.3V58
			c0,1.2,0.3,2.1,0.9,2.8c0.6,0.7,1.5,1.1,2.7,1.1c0.5,0,0.9-0.1,1.3-0.2c0.4-0.1,0.7-0.2,1-0.4c0.3-0.1,0.6-0.2,0.8-0.4
			c0.2-0.1,0.5-0.2,0.7-0.2c0.4,0,0.6,0.1,0.8,0.4c0.2,0.3,0.3,0.7,0.2,1.4c-0.7,0.4-1.4,0.8-2.2,1.1C-79.4,64-80.3,64.1-81.4,64.1z
			"/>
		<linearGradient id="SVGID_40_" gradientUnits="userSpaceOnUse" x1="-220.8983" y1="36.688" x2="-23.4777" y2="36.688">
			<stop  offset="0" style="stop-color:#F6871F"/>
			<stop  offset="0.35" style="stop-color:#ED1C24"/>
			<stop  offset="0.8" style="stop-color:#A43383"/>
			<stop  offset="1" style="stop-color:#0052A4"/>
		</linearGradient>
		<path class="st40" d="M-65.1,64.2c-1.4,0-2.7-0.2-3.8-0.7c-1.1-0.5-2.1-1.2-2.9-2c-0.8-0.9-1.4-1.9-1.9-3
			c-0.4-1.2-0.7-2.4-0.7-3.8c0-1.3,0.2-2.5,0.7-3.7c0.4-1.2,1.1-2.2,1.9-3.1c0.8-0.9,1.8-1.6,2.9-2.1c1.1-0.5,2.4-0.8,3.8-0.8
			c1.4,0,2.7,0.3,3.8,0.8c1.1,0.5,2.1,1.2,2.9,2.1c0.8,0.9,1.4,1.9,1.9,3.1c0.4,1.2,0.6,2.4,0.6,3.7c0,1.3-0.2,2.6-0.6,3.7
			c-0.4,1.2-1,2.2-1.8,3.1c-0.8,0.9-1.8,1.6-2.9,2.1C-62.4,64-63.7,64.2-65.1,64.2z M-65.1,62c0.8,0,1.6-0.1,2.3-0.4
			c0.8-0.3,1.5-0.8,2.1-1.4c0.6-0.6,1.1-1.4,1.5-2.3c0.4-0.9,0.6-2,0.6-3.3c0-1.2-0.2-2.2-0.5-3.1c-0.4-0.9-0.8-1.7-1.4-2.3
			c-0.6-0.6-1.3-1.1-2.1-1.5c-0.8-0.3-1.6-0.5-2.5-0.5c-0.8,0-1.7,0.2-2.5,0.5c-0.8,0.3-1.5,0.8-2.2,1.5c-0.6,0.6-1.2,1.4-1.5,2.3
			c-0.4,0.9-0.6,2-0.6,3.1c0,1.2,0.2,2.3,0.6,3.3c0.4,0.9,0.9,1.7,1.5,2.3s1.4,1.1,2.2,1.4C-66.8,61.8-65.9,62-65.1,62z"/>
		<linearGradient id="SVGID_41_" gradientUnits="userSpaceOnUse" x1="-220.8983" y1="36.688" x2="-23.4777" y2="36.688">
			<stop  offset="0" style="stop-color:#F6871F"/>
			<stop  offset="0.35" style="stop-color:#ED1C24"/>
			<stop  offset="0.8" style="stop-color:#A43383"/>
			<stop  offset="1" style="stop-color:#0052A4"/>
		</linearGradient>
		<path class="st41" d="M-50.8,64.1c-0.2,0-0.5,0-0.7,0c-0.2,0-0.4-0.1-0.5-0.1V45.4c0.4-0.1,0.8-0.2,1.1-0.2c1,0,1.5,0.6,1.5,1.7
			v1.8h0.1c0.6-1.4,1.4-2.4,2.5-2.9c1-0.6,2.2-0.8,3.4-0.8c0.8,0,1.5,0.1,2.1,0.3c0.1,0.8,0,1.4-0.3,1.7c-0.3,0.4-0.7,0.5-1.2,0.5
			c-0.8-0.1-1.6-0.1-2.4,0.1c-0.8,0.2-1.5,0.5-2.1,1c-0.6,0.5-1.1,1.1-1.5,2c-0.4,0.8-0.6,1.9-0.6,3.1V63c0,0.3-0.1,0.6-0.3,0.8
			C-49.9,64-50.3,64.1-50.8,64.1z"/>
	</g>
</g>
<g>
	<rect x="1" y="1.3" class="st42" width="204.7" height="74.7"/>
	<text transform="matrix(1 0 0 1 18.1978 27.8529)"><tspan x="0" y="0" class="st43 st44">Adjust the</tspan><tspan x="29.5" y="36" class="st43 st44">quality</tspan></text>
	<rect x="1" y="1.3" class="st42" width="204.7" height="74.7"/>
	<text transform="matrix(1 0 0 1 18.1978 27.8529)"><tspan x="0" y="0" class="st1 st43 st44">Adjust the</tspan><tspan x="29.5" y="36" class="st1 st43 st44">quality</tspan></text>
	<g>
		<linearGradient id="SVGID_42_" gradientUnits="userSpaceOnUse" x1="18.4316" y1="36.3564" x2="187.2207" y2="36.3564">
			<stop  offset="0" style="stop-color:#F6871F"/>
			<stop  offset="0.35" style="stop-color:#ED1C24"/>
			<stop  offset="0.8" style="stop-color:#A43383"/>
			<stop  offset="1" style="stop-color:#0052A4"/>
		</linearGradient>
		<path class="st45" d="M19.8,28c-0.2,0-0.5,0-0.7-0.1c-0.3-0.1-0.5-0.1-0.7-0.2l9.2-25.2c0.7-0.2,1.3-0.2,1.8-0.2
			c0.8,0,1.3,0.1,1.6,0.4c0.3,0.2,0.6,0.6,0.8,1.2l8.5,23.8c-0.2,0.1-0.4,0.2-0.6,0.2C39.5,28,39.3,28,39.1,28c-0.3,0-0.7-0.1-1-0.2
			c-0.3-0.1-0.5-0.4-0.6-0.7L34.9,20H24l-2.5,7.1c-0.1,0.4-0.3,0.6-0.6,0.7S20.2,28,19.8,28z M24.8,17.6h9.3L29.5,4.7h-0.1
			L24.8,17.6z"/>
		<linearGradient id="SVGID_43_" gradientUnits="userSpaceOnUse" x1="18.4316" y1="36.3564" x2="187.2207" y2="36.3564">
			<stop  offset="0" style="stop-color:#F6871F"/>
			<stop  offset="0.35" style="stop-color:#ED1C24"/>
			<stop  offset="0.8" style="stop-color:#A43383"/>
			<stop  offset="1" style="stop-color:#0052A4"/>
		</linearGradient>
		<path class="st46" d="M50.6,28.2c-1.1,0-2.2-0.2-3.3-0.7c-1-0.4-2-1.1-2.8-1.9c-0.8-0.8-1.4-1.9-1.9-3.1c-0.5-1.2-0.7-2.6-0.7-4.2
			c0-1.6,0.3-3,0.8-4.2c0.5-1.2,1.2-2.2,2-2.9c0.8-0.8,1.7-1.4,2.8-1.7c1-0.4,2.1-0.6,3.1-0.6c1.3,0,2.5,0.3,3.6,0.8
			c1.1,0.5,2,1.2,2.8,2.1V2.4c0-0.3,0.1-0.6,0.3-0.8c0.2-0.2,0.6-0.3,1.1-0.3c0.2,0,0.5,0,0.7,0c0.2,0,0.4,0.1,0.5,0.1v20.1
			c0,1.3,0,2.4,0.1,3.5c0,1,0.1,2,0.1,2.8C59.5,28,59.1,28,58.6,28c-0.9,0-1.3-0.5-1.3-1.4v-1.8h0c-0.8,1.2-1.8,2-3,2.5
			C53.2,28,51.9,28.2,50.6,28.2z M51.1,26c1.2,0,2.3-0.3,3.4-0.9c1.1-0.6,1.9-1.5,2.5-2.7v-7.8c-0.6-1.2-1.4-2-2.5-2.6
			c-1.1-0.6-2.2-0.9-3.4-0.9c-1,0-1.8,0.2-2.6,0.5s-1.5,0.8-2,1.5c-0.6,0.6-1,1.4-1.3,2.3c-0.3,0.9-0.5,1.9-0.5,2.9
			c0,2.3,0.6,4.2,1.8,5.6C47.5,25.3,49.1,26,51.1,26z"/>
		<linearGradient id="SVGID_44_" gradientUnits="userSpaceOnUse" x1="18.4316" y1="36.3564" x2="187.2207" y2="36.3564">
			<stop  offset="0" style="stop-color:#F6871F"/>
			<stop  offset="0.35" style="stop-color:#ED1C24"/>
			<stop  offset="0.8" style="stop-color:#A43383"/>
			<stop  offset="1" style="stop-color:#0052A4"/>
		</linearGradient>
		<path class="st47" d="M61.8,35.6c-0.6-0.5-0.9-0.9-0.9-1.4c0-0.4,0.2-0.7,0.7-1c0.8-0.4,1.4-0.7,1.9-1.1c0.5-0.3,0.9-0.7,1.2-1.1
			c0.3-0.4,0.5-0.9,0.6-1.5c0.1-0.6,0.2-1.3,0.2-2.1V10.3c0-0.3,0.1-0.6,0.3-0.8c0.2-0.2,0.6-0.3,1.1-0.3c0.2,0,0.5,0,0.7,0
			c0.2,0,0.4,0.1,0.5,0.1v17.8c0,1.2-0.1,2.2-0.4,3.1c-0.2,0.9-0.6,1.7-1.1,2.3c-0.5,0.7-1.2,1.2-1.9,1.7
			C63.8,34.8,62.9,35.2,61.8,35.6z M66.7,4.8c-0.4,0-0.8-0.2-1.2-0.5C65.2,3.9,65,3.5,65,3.1c0-0.5,0.2-0.9,0.5-1.2
			c0.3-0.3,0.7-0.5,1.2-0.5c0.5,0,0.9,0.2,1.2,0.5c0.3,0.3,0.5,0.7,0.5,1.2c0,0.4-0.2,0.8-0.5,1.2C67.6,4.6,67.2,4.8,66.7,4.8z"/>
		<linearGradient id="SVGID_45_" gradientUnits="userSpaceOnUse" x1="18.4316" y1="36.3564" x2="187.2207" y2="36.3564">
			<stop  offset="0" style="stop-color:#F6871F"/>
			<stop  offset="0.35" style="stop-color:#ED1C24"/>
			<stop  offset="0.8" style="stop-color:#A43383"/>
			<stop  offset="1" style="stop-color:#0052A4"/>
		</linearGradient>
		<path class="st48" d="M80.4,28.2c-1,0-1.9-0.2-2.7-0.5c-0.8-0.3-1.6-0.8-2.2-1.4c-0.7-0.6-1.2-1.4-1.5-2.4c-0.4-1-0.5-2.2-0.5-3.5
			V10.3c0-0.3,0.1-0.6,0.3-0.8c0.2-0.2,0.6-0.3,1.1-0.3c0.2,0,0.5,0,0.7,0c0.2,0,0.4,0.1,0.5,0.1v10.9c0,1.9,0.5,3.3,1.4,4.3
			c0.9,0.9,2.1,1.4,3.5,1.4c1.1,0,2.1-0.3,3.1-0.9c1-0.6,1.9-1.5,2.6-2.7V10.3c0-0.3,0.1-0.6,0.3-0.8c0.2-0.2,0.6-0.3,1.1-0.3
			c0.2,0,0.5,0,0.7,0c0.2,0,0.4,0.1,0.5,0.1v9.9c0,1.2,0,2.6,0.1,4c0.1,1.4,0.3,2.9,0.8,4.5c-0.2,0.1-0.4,0.1-0.6,0.2
			C89.3,28,89.1,28,88.8,28c-0.7,0-1.1-0.3-1.3-0.9c-0.1-0.2-0.1-0.5-0.2-0.9c-0.1-0.4-0.2-1-0.3-1.6h0c-0.8,1.1-1.7,1.9-2.7,2.5
			C83.2,27.9,81.9,28.2,80.4,28.2z"/>
		<linearGradient id="SVGID_46_" gradientUnits="userSpaceOnUse" x1="18.4316" y1="36.3564" x2="187.2207" y2="36.3564">
			<stop  offset="0" style="stop-color:#F6871F"/>
			<stop  offset="0.35" style="stop-color:#ED1C24"/>
			<stop  offset="0.8" style="stop-color:#A43383"/>
			<stop  offset="1" style="stop-color:#0052A4"/>
		</linearGradient>
		<path class="st49" d="M101,28.1c-1.3,0-2.6-0.1-3.8-0.4c-1.2-0.3-2.4-0.6-3.6-1.1c-0.1-0.6-0.1-1,0.1-1.4c0.2-0.4,0.5-0.5,0.9-0.5
			c0.3,0,0.6,0.1,1,0.2c0.4,0.1,0.9,0.3,1.4,0.4c0.5,0.1,1.1,0.3,1.8,0.4c0.7,0.1,1.4,0.2,2.2,0.2c1.1,0,1.9-0.1,2.6-0.3
			c0.6-0.2,1.1-0.4,1.5-0.8c0.3-0.3,0.6-0.6,0.7-1c0.1-0.4,0.2-0.7,0.2-1c0-0.8-0.3-1.4-0.8-1.8c-0.6-0.4-1.5-0.8-2.9-1.2L98.8,19
			c-1.9-0.5-3.2-1.2-4-2c-0.8-0.8-1.2-1.8-1.2-2.9c0-0.6,0.1-1.3,0.4-1.9s0.6-1.2,1.2-1.7c0.6-0.5,1.3-0.9,2.2-1.2
			c0.9-0.3,2.1-0.4,3.4-0.4c1.2,0,2.3,0.1,3.4,0.3c1.1,0.2,2.2,0.5,3.4,0.9c0.2,1.3-0.2,1.9-1.1,1.9c-0.2,0-0.5-0.1-0.9-0.2
			c-0.3-0.1-0.7-0.2-1.2-0.4c-0.5-0.1-1-0.2-1.6-0.4s-1.3-0.2-2-0.2c-1.7,0-2.9,0.3-3.6,0.8c-0.7,0.5-1.1,1.2-1.1,2
			c0,0.3,0,0.6,0.1,0.9c0.1,0.3,0.2,0.5,0.5,0.8c0.2,0.2,0.6,0.5,1.1,0.7c0.5,0.2,1.1,0.4,1.8,0.6l3.2,0.9c1.1,0.3,2,0.6,2.7,0.9
			c0.7,0.3,1.3,0.7,1.7,1.1c0.4,0.4,0.8,0.9,1,1.4c0.2,0.5,0.3,1.1,0.3,1.7c0,0.6-0.1,1.2-0.3,1.8c-0.2,0.6-0.6,1.2-1.1,1.7
			c-0.5,0.5-1.3,0.9-2.3,1.3C103.7,28,102.5,28.1,101,28.1z"/>
		<linearGradient id="SVGID_47_" gradientUnits="userSpaceOnUse" x1="18.4316" y1="36.3564" x2="187.2207" y2="36.3564">
			<stop  offset="0" style="stop-color:#F6871F"/>
			<stop  offset="0.35" style="stop-color:#ED1C24"/>
			<stop  offset="0.8" style="stop-color:#A43383"/>
			<stop  offset="1" style="stop-color:#0052A4"/>
		</linearGradient>
		<path class="st50" d="M119.2,28.1c-1.8,0-3.3-0.6-4.3-1.7c-1-1.1-1.5-2.5-1.5-4.3V11.5h-3c-0.1-0.2-0.1-0.6-0.1-1
			c0-0.4,0.1-0.7,0.3-0.9c0.2-0.2,0.4-0.2,0.6-0.2h2.3V5.6c0-0.4,0.1-0.7,0.3-1c0.2-0.3,0.6-0.5,1.2-0.5c0.2,0,0.3,0,0.5,0
			c0.2,0,0.4,0.1,0.5,0.1v5.1h7.1c0.1,0.2,0.1,0.6,0.1,1c0,0.4-0.1,0.7-0.3,0.9c-0.2,0.2-0.4,0.2-0.6,0.2h-6.3V22
			c0,1.2,0.3,2.1,0.9,2.8c0.6,0.7,1.5,1.1,2.7,1.1c0.5,0,0.9-0.1,1.3-0.2c0.4-0.1,0.7-0.2,1-0.4c0.3-0.1,0.6-0.2,0.8-0.4
			c0.2-0.1,0.5-0.2,0.7-0.2c0.4,0,0.6,0.1,0.8,0.4c0.2,0.3,0.3,0.7,0.2,1.4c-0.7,0.4-1.4,0.8-2.2,1.1
			C121.1,28,120.2,28.1,119.2,28.1z"/>
		<linearGradient id="SVGID_48_" gradientUnits="userSpaceOnUse" x1="18.4316" y1="36.3564" x2="187.2207" y2="36.3564">
			<stop  offset="0" style="stop-color:#F6871F"/>
			<stop  offset="0.35" style="stop-color:#ED1C24"/>
			<stop  offset="0.8" style="stop-color:#A43383"/>
			<stop  offset="1" style="stop-color:#0052A4"/>
		</linearGradient>
		<path class="st51" d="M141.9,28.1c-1.8,0-3.3-0.6-4.3-1.7c-1-1.1-1.5-2.5-1.5-4.3V11.5h-3c-0.1-0.2-0.1-0.6-0.1-1
			c0-0.4,0.1-0.7,0.3-0.9c0.2-0.2,0.4-0.2,0.6-0.2h2.3V5.6c0-0.4,0.1-0.7,0.3-1c0.2-0.3,0.6-0.5,1.2-0.5c0.2,0,0.3,0,0.5,0
			c0.2,0,0.4,0.1,0.5,0.1v5.1h7.1c0.1,0.2,0.1,0.6,0.1,1c0,0.4-0.1,0.7-0.3,0.9c-0.2,0.2-0.4,0.2-0.6,0.2h-6.3V22
			c0,1.2,0.3,2.1,0.9,2.8c0.6,0.7,1.5,1.1,2.7,1.1c0.5,0,0.9-0.1,1.3-0.2c0.4-0.1,0.7-0.2,1-0.4c0.3-0.1,0.6-0.2,0.8-0.4
			c0.2-0.1,0.5-0.2,0.7-0.2c0.4,0,0.6,0.1,0.8,0.4c0.2,0.3,0.3,0.7,0.2,1.4c-0.7,0.4-1.4,0.8-2.2,1.1
			C143.9,28,142.9,28.1,141.9,28.1z"/>
		<linearGradient id="SVGID_49_" gradientUnits="userSpaceOnUse" x1="18.4316" y1="36.3564" x2="187.2207" y2="36.3564">
			<stop  offset="0" style="stop-color:#F6871F"/>
			<stop  offset="0.35" style="stop-color:#ED1C24"/>
			<stop  offset="0.8" style="stop-color:#A43383"/>
			<stop  offset="1" style="stop-color:#0052A4"/>
		</linearGradient>
		<path class="st52" d="M151.4,28.1c-0.2,0-0.5,0-0.7,0c-0.2,0-0.4-0.1-0.5-0.1V2.4c0-0.3,0.1-0.6,0.3-0.8c0.2-0.2,0.6-0.3,1.1-0.3
			c0.2,0,0.5,0,0.7,0c0.2,0,0.4,0.1,0.5,0.1V12c0.7-0.8,1.5-1.6,2.6-2.2c1-0.6,2.3-0.9,3.8-0.9c0.9,0,1.8,0.2,2.7,0.5
			c0.8,0.3,1.6,0.8,2.2,1.4c0.6,0.6,1.1,1.5,1.5,2.5c0.4,1,0.6,2.2,0.6,3.6V27c0,0.3-0.1,0.6-0.3,0.8c-0.2,0.2-0.6,0.3-1.1,0.3
			c-0.2,0-0.5,0-0.7,0s-0.4-0.1-0.5-0.1V17.1c0-2-0.5-3.5-1.4-4.5c-0.9-1-2.2-1.5-3.7-1.5c-1.2,0-2.3,0.3-3.3,1
			c-1,0.6-1.8,1.5-2.3,2.4V27c0,0.3-0.1,0.6-0.3,0.8C152.3,28,151.9,28.1,151.4,28.1z"/>
		<linearGradient id="SVGID_50_" gradientUnits="userSpaceOnUse" x1="18.4316" y1="36.3564" x2="187.2207" y2="36.3564">
			<stop  offset="0" style="stop-color:#F6871F"/>
			<stop  offset="0.35" style="stop-color:#ED1C24"/>
			<stop  offset="0.8" style="stop-color:#A43383"/>
			<stop  offset="1" style="stop-color:#0052A4"/>
		</linearGradient>
		<path class="st53" d="M179.5,28.3c-1.5,0-2.9-0.2-4.1-0.7c-1.2-0.5-2.2-1.2-3-2.1c-0.8-0.9-1.4-1.9-1.9-3.1
			c-0.4-1.2-0.6-2.4-0.6-3.8c0-1.4,0.2-2.7,0.7-3.8c0.5-1.2,1.1-2.2,1.9-3.1c0.8-0.9,1.7-1.5,2.8-2c1.1-0.5,2.2-0.7,3.5-0.7
			c1.4,0,2.7,0.3,3.7,0.8c1.1,0.6,1.9,1.3,2.6,2.1c0.7,0.9,1.2,1.8,1.5,2.8c0.3,1,0.5,2,0.5,3c0,0.8,0,1.4-0.1,1.7h-14.6
			c0.1,1.1,0.3,2,0.6,2.8c0.4,0.8,0.9,1.5,1.5,2s1.3,1,2.2,1.3s1.7,0.4,2.6,0.4c0.8,0,1.5-0.1,2-0.2c0.6-0.1,1.1-0.3,1.6-0.4
			c0.5-0.2,0.9-0.3,1.2-0.4c0.3-0.1,0.6-0.2,0.9-0.2c0.4,0,0.7,0.2,0.9,0.5c0.2,0.4,0.3,0.8,0.2,1.4c-0.7,0.4-1.6,0.7-2.8,1.1
			S180.9,28.3,179.5,28.3z M172.5,17.5h12.2c-0.1-0.9-0.2-1.7-0.5-2.5c-0.3-0.8-0.7-1.5-1.2-2c-0.5-0.6-1.1-1-1.8-1.4
			c-0.7-0.3-1.5-0.5-2.4-0.5c-0.9,0-1.7,0.2-2.4,0.5c-0.7,0.3-1.4,0.8-1.9,1.4s-1,1.3-1.3,2C172.8,15.7,172.6,16.6,172.5,17.5z"/>
		<linearGradient id="SVGID_51_" gradientUnits="userSpaceOnUse" x1="18.4316" y1="36.3564" x2="187.2207" y2="36.3564">
			<stop  offset="0" style="stop-color:#F6871F"/>
			<stop  offset="0.35" style="stop-color:#ED1C24"/>
			<stop  offset="0.8" style="stop-color:#A43383"/>
			<stop  offset="1" style="stop-color:#0052A4"/>
		</linearGradient>
		<path class="st54" d="M65.3,71.3c-0.2,0-0.5,0-0.7,0c-0.2,0-0.4-0.1-0.5-0.1v-9.8c-0.8,1-1.8,1.7-2.9,2.2s-2.2,0.7-3.3,0.7
			c-1.2,0-2.4-0.2-3.4-0.7c-1.1-0.5-2-1.1-2.8-2c-0.8-0.8-1.4-1.8-1.9-3c-0.5-1.2-0.7-2.4-0.7-3.8c0-1.4,0.2-2.7,0.7-4
			c0.5-1.2,1.1-2.2,1.9-3.1c0.8-0.9,1.7-1.5,2.7-2c1.1-0.5,2.2-0.7,3.4-0.7c1.5,0,2.8,0.3,3.9,1c1.1,0.7,1.9,1.5,2.5,2.5h0v-1.5
			c0-1.1,0.5-1.7,1.5-1.7c0.3,0,0.7,0.1,1.1,0.2v24.9c0,0.3-0.1,0.6-0.3,0.8C66.1,71.2,65.8,71.3,65.3,71.3z M58.1,62
			c1.2,0,2.4-0.3,3.5-0.9c1.1-0.6,1.9-1.5,2.5-2.6v-5.2c0-0.8-0.1-1.6-0.4-2.4c-0.3-0.7-0.7-1.4-1.2-1.9c-0.5-0.6-1.2-1-1.9-1.3
			c-0.7-0.3-1.5-0.5-2.4-0.5c-1.1,0-2,0.2-2.8,0.6c-0.8,0.4-1.5,1-2,1.7c-0.5,0.7-1,1.5-1.2,2.4c-0.3,0.9-0.4,1.9-0.4,2.9
			s0.1,2,0.4,2.9c0.3,0.9,0.7,1.7,1.3,2.3c0.6,0.7,1.2,1.2,2,1.5C56.1,61.8,57,62,58.1,62z"/>
		<linearGradient id="SVGID_52_" gradientUnits="userSpaceOnUse" x1="18.4316" y1="36.3564" x2="187.2207" y2="36.3564">
			<stop  offset="0" style="stop-color:#F6871F"/>
			<stop  offset="0.35" style="stop-color:#ED1C24"/>
			<stop  offset="0.8" style="stop-color:#A43383"/>
			<stop  offset="1" style="stop-color:#0052A4"/>
		</linearGradient>
		<path class="st55" d="M78.8,64.2c-1,0-1.9-0.2-2.7-0.5c-0.8-0.3-1.6-0.8-2.2-1.4c-0.7-0.6-1.2-1.4-1.5-2.4c-0.4-1-0.5-2.2-0.5-3.5
			V46.3c0-0.3,0.1-0.6,0.3-0.8c0.2-0.2,0.6-0.3,1.1-0.3c0.2,0,0.5,0,0.7,0c0.2,0,0.4,0.1,0.5,0.1v10.9c0,1.9,0.5,3.3,1.4,4.3
			c0.9,0.9,2.1,1.4,3.5,1.4c1.1,0,2.1-0.3,3.1-0.9c1-0.6,1.9-1.5,2.6-2.7V46.3c0-0.3,0.1-0.6,0.3-0.8c0.2-0.2,0.6-0.3,1.1-0.3
			c0.2,0,0.5,0,0.7,0c0.2,0,0.4,0.1,0.5,0.1v9.9c0,1.2,0,2.6,0.1,4c0.1,1.4,0.3,2.9,0.8,4.5c-0.2,0.1-0.4,0.1-0.6,0.2
			C87.7,64,87.5,64,87.2,64c-0.7,0-1.1-0.3-1.3-0.9c-0.1-0.2-0.1-0.5-0.2-0.9c-0.1-0.4-0.2-1-0.3-1.6h0c-0.8,1.1-1.7,1.9-2.7,2.5
			C81.6,63.9,80.3,64.2,78.8,64.2z"/>
		<linearGradient id="SVGID_53_" gradientUnits="userSpaceOnUse" x1="18.4316" y1="36.3564" x2="187.2207" y2="36.3564">
			<stop  offset="0" style="stop-color:#F6871F"/>
			<stop  offset="0.35" style="stop-color:#ED1C24"/>
			<stop  offset="0.8" style="stop-color:#A43383"/>
			<stop  offset="1" style="stop-color:#0052A4"/>
		</linearGradient>
		<path class="st56" d="M98.4,64.2c-1.1,0-2-0.1-2.9-0.4c-0.8-0.3-1.5-0.7-2-1.2c-0.5-0.5-0.9-1.1-1.2-1.8c-0.3-0.7-0.4-1.4-0.4-2.2
			c0-1.8,0.6-3.2,1.9-4.3c1.3-1.1,3.3-1.6,6.1-1.6c1.6,0,3.4,0.2,5.5,0.6v-1.6c0-1.6-0.4-2.7-1.1-3.4s-2-1-3.7-1
			c-0.9,0-1.7,0.1-2.4,0.2c-0.7,0.1-1.2,0.2-1.7,0.4c-0.5,0.1-0.8,0.2-1.2,0.4c-0.3,0.1-0.6,0.2-0.9,0.2c-0.4,0-0.7-0.2-0.9-0.5
			c-0.2-0.4-0.3-0.9-0.2-1.5c0.6-0.2,1.6-0.5,2.9-0.7c1.3-0.3,2.7-0.4,4.3-0.4c1.4,0,2.6,0.2,3.5,0.5s1.7,0.8,2.2,1.5
			c0.5,0.6,0.9,1.4,1.2,2.3c0.2,0.9,0.3,2,0.3,3.1v4.1c0,0.9,0,1.6,0,2.3c0,0.7,0.1,1.2,0.2,1.8c0.1,0.5,0.2,1.1,0.4,1.6
			c0.2,0.5,0.4,1.1,0.6,1.7c-0.2,0.1-0.4,0.2-0.6,0.3c-0.2,0.1-0.4,0.1-0.7,0.1c-0.4,0-0.7-0.1-0.9-0.2s-0.4-0.4-0.5-0.6
			c-0.1-0.3-0.3-0.6-0.4-1.1c-0.1-0.5-0.2-1.1-0.3-1.7h-0.1c-0.7,1.1-1.6,2-2.8,2.7C101.7,63.8,100.2,64.2,98.4,64.2z M98.8,62
			c1.5,0,2.8-0.4,3.9-1.1c1.1-0.7,2-1.7,2.7-3V55c-2-0.4-3.6-0.5-5-0.5c-2,0-3.5,0.4-4.5,1.1c-1,0.7-1.5,1.7-1.5,2.9
			c0,1.1,0.4,1.9,1.2,2.6S97.5,62,98.8,62z"/>
		<linearGradient id="SVGID_54_" gradientUnits="userSpaceOnUse" x1="18.4316" y1="36.3564" x2="187.2207" y2="36.3564">
			<stop  offset="0" style="stop-color:#F6871F"/>
			<stop  offset="0.35" style="stop-color:#ED1C24"/>
			<stop  offset="0.8" style="stop-color:#A43383"/>
			<stop  offset="1" style="stop-color:#0052A4"/>
		</linearGradient>
		<path class="st57" d="M114.3,64.1c-0.2,0-0.5,0-0.7,0c-0.2,0-0.4-0.1-0.5-0.1V38.4c0-0.3,0.1-0.6,0.3-0.8c0.2-0.2,0.6-0.3,1.1-0.3
			c0.2,0,0.5,0,0.7,0.1c0.2,0,0.4,0.1,0.5,0.1V63c0,0.3-0.1,0.6-0.3,0.8C115.2,64,114.8,64.1,114.3,64.1z"/>
		<linearGradient id="SVGID_55_" gradientUnits="userSpaceOnUse" x1="18.4316" y1="36.3564" x2="187.2207" y2="36.3564">
			<stop  offset="0" style="stop-color:#F6871F"/>
			<stop  offset="0.35" style="stop-color:#ED1C24"/>
			<stop  offset="0.8" style="stop-color:#A43383"/>
			<stop  offset="1" style="stop-color:#0052A4"/>
		</linearGradient>
		<path class="st58" d="M122.4,40.8c-0.5,0-0.9-0.2-1.2-0.5c-0.3-0.3-0.5-0.7-0.5-1.2c0-0.5,0.2-0.9,0.5-1.2
			c0.3-0.3,0.7-0.5,1.2-0.5c0.5,0,0.9,0.2,1.2,0.5c0.3,0.3,0.5,0.7,0.5,1.2c0,0.4-0.2,0.8-0.5,1.2C123.3,40.6,122.9,40.8,122.4,40.8
			z M122.3,64.1c-0.2,0-0.5,0-0.7,0s-0.4-0.1-0.5-0.1V46.3c0-0.3,0.1-0.6,0.3-0.8c0.2-0.2,0.6-0.3,1.1-0.3c0.2,0,0.5,0,0.7,0
			c0.2,0,0.4,0.1,0.5,0.1V63c0,0.3-0.1,0.6-0.3,0.8C123.2,64,122.8,64.1,122.3,64.1z"/>
		<linearGradient id="SVGID_56_" gradientUnits="userSpaceOnUse" x1="18.4316" y1="36.3564" x2="187.2207" y2="36.3564">
			<stop  offset="0" style="stop-color:#F6871F"/>
			<stop  offset="0.35" style="stop-color:#ED1C24"/>
			<stop  offset="0.8" style="stop-color:#A43383"/>
			<stop  offset="1" style="stop-color:#0052A4"/>
		</linearGradient>
		<path class="st59" d="M135.9,64.1c-1.8,0-3.3-0.6-4.3-1.7c-1-1.1-1.5-2.5-1.5-4.3V47.5h-3c-0.1-0.2-0.1-0.6-0.1-1
			c0-0.4,0.1-0.7,0.3-0.9c0.2-0.2,0.4-0.2,0.6-0.2h2.3v-3.8c0-0.4,0.1-0.7,0.3-1c0.2-0.3,0.6-0.5,1.2-0.5c0.2,0,0.3,0,0.5,0
			c0.2,0,0.4,0.1,0.5,0.1v5.1h7.1c0.1,0.2,0.1,0.6,0.1,1c0,0.4-0.1,0.7-0.3,0.9c-0.2,0.2-0.4,0.2-0.6,0.2h-6.3V58
			c0,1.2,0.3,2.1,0.9,2.8c0.6,0.7,1.5,1.1,2.7,1.1c0.5,0,0.9-0.1,1.3-0.2c0.4-0.1,0.7-0.2,1-0.4c0.3-0.1,0.6-0.2,0.8-0.4
			c0.2-0.1,0.5-0.2,0.7-0.2c0.4,0,0.6,0.1,0.8,0.4c0.2,0.3,0.3,0.7,0.2,1.4c-0.7,0.4-1.4,0.8-2.2,1.1
			C137.9,64,136.9,64.1,135.9,64.1z"/>
		<linearGradient id="SVGID_57_" gradientUnits="userSpaceOnUse" x1="18.4316" y1="36.3564" x2="187.2207" y2="36.3564">
			<stop  offset="0" style="stop-color:#F6871F"/>
			<stop  offset="0.35" style="stop-color:#ED1C24"/>
			<stop  offset="0.8" style="stop-color:#A43383"/>
			<stop  offset="1" style="stop-color:#0052A4"/>
		</linearGradient>
		<path class="st60" d="M147.7,71.4c-0.2,0-0.5,0-0.7-0.1c-0.3-0.1-0.5-0.1-0.7-0.2l3-7.1l-7.6-18.4c0.2-0.1,0.4-0.1,0.6-0.2
			c0.2-0.1,0.5-0.1,0.7-0.1c0.4,0,0.8,0.1,1.1,0.2c0.3,0.2,0.5,0.4,0.7,0.9l5.7,14.7h0l5.6-14.7c0.2-0.4,0.4-0.7,0.6-0.8
			c0.3-0.2,0.6-0.2,0.8-0.2c0.2,0,0.5,0,0.7,0.1c0.3,0.1,0.5,0.1,0.7,0.2l-9.9,24.8c-0.2,0.4-0.4,0.7-0.6,0.8
			C148.2,71.3,148,71.4,147.7,71.4z"/>
	</g>
	<g>
		<linearGradient id="SVGID_58_" gradientUnits="userSpaceOnUse" x1="18.4316" y1="36.3564" x2="187.2207" y2="36.3564">
			<stop  offset="0" style="stop-color:#F6871F"/>
			<stop  offset="0.35" style="stop-color:#ED1C24"/>
			<stop  offset="0.8" style="stop-color:#A43383"/>
			<stop  offset="1" style="stop-color:#0052A4"/>
		</linearGradient>
		<path class="st61" d="M19.8,28c-0.2,0-0.5,0-0.7-0.1c-0.3-0.1-0.5-0.1-0.7-0.2l9.2-25.2c0.7-0.2,1.3-0.2,1.8-0.2
			c0.8,0,1.3,0.1,1.6,0.4c0.3,0.2,0.6,0.6,0.8,1.2l8.5,23.8c-0.2,0.1-0.4,0.2-0.6,0.2C39.5,28,39.3,28,39.1,28c-0.3,0-0.7-0.1-1-0.2
			c-0.3-0.1-0.5-0.4-0.6-0.7L34.9,20H24l-2.5,7.1c-0.1,0.4-0.3,0.6-0.6,0.7S20.2,28,19.8,28z M24.8,17.6h9.3L29.5,4.7h-0.1
			L24.8,17.6z"/>
		<linearGradient id="SVGID_59_" gradientUnits="userSpaceOnUse" x1="18.4316" y1="36.3564" x2="187.2207" y2="36.3564">
			<stop  offset="0" style="stop-color:#F6871F"/>
			<stop  offset="0.35" style="stop-color:#ED1C24"/>
			<stop  offset="0.8" style="stop-color:#A43383"/>
			<stop  offset="1" style="stop-color:#0052A4"/>
		</linearGradient>
		<path class="st62" d="M50.6,28.2c-1.1,0-2.2-0.2-3.3-0.7c-1-0.4-2-1.1-2.8-1.9c-0.8-0.8-1.4-1.9-1.9-3.1c-0.5-1.2-0.7-2.6-0.7-4.2
			c0-1.6,0.3-3,0.8-4.2c0.5-1.2,1.2-2.2,2-2.9c0.8-0.8,1.7-1.4,2.8-1.7c1-0.4,2.1-0.6,3.1-0.6c1.3,0,2.5,0.3,3.6,0.8
			c1.1,0.5,2,1.2,2.8,2.1V2.4c0-0.3,0.1-0.6,0.3-0.8c0.2-0.2,0.6-0.3,1.1-0.3c0.2,0,0.5,0,0.7,0c0.2,0,0.4,0.1,0.5,0.1v20.1
			c0,1.3,0,2.4,0.1,3.5c0,1,0.1,2,0.1,2.8C59.5,28,59.1,28,58.6,28c-0.9,0-1.3-0.5-1.3-1.4v-1.8h0c-0.8,1.2-1.8,2-3,2.5
			C53.2,28,51.9,28.2,50.6,28.2z M51.1,26c1.2,0,2.3-0.3,3.4-0.9c1.1-0.6,1.9-1.5,2.5-2.7v-7.8c-0.6-1.2-1.4-2-2.5-2.6
			c-1.1-0.6-2.2-0.9-3.4-0.9c-1,0-1.8,0.2-2.6,0.5s-1.5,0.8-2,1.5c-0.6,0.6-1,1.4-1.3,2.3c-0.3,0.9-0.5,1.9-0.5,2.9
			c0,2.3,0.6,4.2,1.8,5.6C47.5,25.3,49.1,26,51.1,26z"/>
		<linearGradient id="SVGID_60_" gradientUnits="userSpaceOnUse" x1="18.4316" y1="36.3564" x2="187.2207" y2="36.3564">
			<stop  offset="0" style="stop-color:#F6871F"/>
			<stop  offset="0.35" style="stop-color:#ED1C24"/>
			<stop  offset="0.8" style="stop-color:#A43383"/>
			<stop  offset="1" style="stop-color:#0052A4"/>
		</linearGradient>
		<path class="st63" d="M61.8,35.6c-0.6-0.5-0.9-0.9-0.9-1.4c0-0.4,0.2-0.7,0.7-1c0.8-0.4,1.4-0.7,1.9-1.1c0.5-0.3,0.9-0.7,1.2-1.1
			c0.3-0.4,0.5-0.9,0.6-1.5c0.1-0.6,0.2-1.3,0.2-2.1V10.3c0-0.3,0.1-0.6,0.3-0.8c0.2-0.2,0.6-0.3,1.1-0.3c0.2,0,0.5,0,0.7,0
			c0.2,0,0.4,0.1,0.5,0.1v17.8c0,1.2-0.1,2.2-0.4,3.1c-0.2,0.9-0.6,1.7-1.1,2.3c-0.5,0.7-1.2,1.2-1.9,1.7
			C63.8,34.8,62.9,35.2,61.8,35.6z M66.7,4.8c-0.4,0-0.8-0.2-1.2-0.5C65.2,3.9,65,3.5,65,3.1c0-0.5,0.2-0.9,0.5-1.2
			c0.3-0.3,0.7-0.5,1.2-0.5c0.5,0,0.9,0.2,1.2,0.5c0.3,0.3,0.5,0.7,0.5,1.2c0,0.4-0.2,0.8-0.5,1.2C67.6,4.6,67.2,4.8,66.7,4.8z"/>
		<linearGradient id="SVGID_61_" gradientUnits="userSpaceOnUse" x1="18.4316" y1="36.3564" x2="187.2207" y2="36.3564">
			<stop  offset="0" style="stop-color:#F6871F"/>
			<stop  offset="0.35" style="stop-color:#ED1C24"/>
			<stop  offset="0.8" style="stop-color:#A43383"/>
			<stop  offset="1" style="stop-color:#0052A4"/>
		</linearGradient>
		<path class="st64" d="M80.4,28.2c-1,0-1.9-0.2-2.7-0.5c-0.8-0.3-1.6-0.8-2.2-1.4c-0.7-0.6-1.2-1.4-1.5-2.4c-0.4-1-0.5-2.2-0.5-3.5
			V10.3c0-0.3,0.1-0.6,0.3-0.8c0.2-0.2,0.6-0.3,1.1-0.3c0.2,0,0.5,0,0.7,0c0.2,0,0.4,0.1,0.5,0.1v10.9c0,1.9,0.5,3.3,1.4,4.3
			c0.9,0.9,2.1,1.4,3.5,1.4c1.1,0,2.1-0.3,3.1-0.9c1-0.6,1.9-1.5,2.6-2.7V10.3c0-0.3,0.1-0.6,0.3-0.8c0.2-0.2,0.6-0.3,1.1-0.3
			c0.2,0,0.5,0,0.7,0c0.2,0,0.4,0.1,0.5,0.1v9.9c0,1.2,0,2.6,0.1,4c0.1,1.4,0.3,2.9,0.8,4.5c-0.2,0.1-0.4,0.1-0.6,0.2
			C89.3,28,89.1,28,88.8,28c-0.7,0-1.1-0.3-1.3-0.9c-0.1-0.2-0.1-0.5-0.2-0.9c-0.1-0.4-0.2-1-0.3-1.6h0c-0.8,1.1-1.7,1.9-2.7,2.5
			C83.2,27.9,81.9,28.2,80.4,28.2z"/>
		<linearGradient id="SVGID_62_" gradientUnits="userSpaceOnUse" x1="18.4316" y1="36.3564" x2="187.2207" y2="36.3564">
			<stop  offset="0" style="stop-color:#F6871F"/>
			<stop  offset="0.35" style="stop-color:#ED1C24"/>
			<stop  offset="0.8" style="stop-color:#A43383"/>
			<stop  offset="1" style="stop-color:#0052A4"/>
		</linearGradient>
		<path class="st65" d="M101,28.1c-1.3,0-2.6-0.1-3.8-0.4c-1.2-0.3-2.4-0.6-3.6-1.1c-0.1-0.6-0.1-1,0.1-1.4c0.2-0.4,0.5-0.5,0.9-0.5
			c0.3,0,0.6,0.1,1,0.2c0.4,0.1,0.9,0.3,1.4,0.4c0.5,0.1,1.1,0.3,1.8,0.4c0.7,0.1,1.4,0.2,2.2,0.2c1.1,0,1.9-0.1,2.6-0.3
			c0.6-0.2,1.1-0.4,1.5-0.8c0.3-0.3,0.6-0.6,0.7-1c0.1-0.4,0.2-0.7,0.2-1c0-0.8-0.3-1.4-0.8-1.8c-0.6-0.4-1.5-0.8-2.9-1.2L98.8,19
			c-1.9-0.5-3.2-1.2-4-2c-0.8-0.8-1.2-1.8-1.2-2.9c0-0.6,0.1-1.3,0.4-1.9s0.6-1.2,1.2-1.7c0.6-0.5,1.3-0.9,2.2-1.2
			c0.9-0.3,2.1-0.4,3.4-0.4c1.2,0,2.3,0.1,3.4,0.3c1.1,0.2,2.2,0.5,3.4,0.9c0.2,1.3-0.2,1.9-1.1,1.9c-0.2,0-0.5-0.1-0.9-0.2
			c-0.3-0.1-0.7-0.2-1.2-0.4c-0.5-0.1-1-0.2-1.6-0.4s-1.3-0.2-2-0.2c-1.7,0-2.9,0.3-3.6,0.8c-0.7,0.5-1.1,1.2-1.1,2
			c0,0.3,0,0.6,0.1,0.9c0.1,0.3,0.2,0.5,0.5,0.8c0.2,0.2,0.6,0.5,1.1,0.7c0.5,0.2,1.1,0.4,1.8,0.6l3.2,0.9c1.1,0.3,2,0.6,2.7,0.9
			c0.7,0.3,1.3,0.7,1.7,1.1c0.4,0.4,0.8,0.9,1,1.4c0.2,0.5,0.3,1.1,0.3,1.7c0,0.6-0.1,1.2-0.3,1.8c-0.2,0.6-0.6,1.2-1.1,1.7
			c-0.5,0.5-1.3,0.9-2.3,1.3C103.7,28,102.5,28.1,101,28.1z"/>
		<linearGradient id="SVGID_63_" gradientUnits="userSpaceOnUse" x1="18.4316" y1="36.3564" x2="187.2207" y2="36.3564">
			<stop  offset="0" style="stop-color:#F6871F"/>
			<stop  offset="0.35" style="stop-color:#ED1C24"/>
			<stop  offset="0.8" style="stop-color:#A43383"/>
			<stop  offset="1" style="stop-color:#0052A4"/>
		</linearGradient>
		<path class="st66" d="M119.2,28.1c-1.8,0-3.3-0.6-4.3-1.7c-1-1.1-1.5-2.5-1.5-4.3V11.5h-3c-0.1-0.2-0.1-0.6-0.1-1
			c0-0.4,0.1-0.7,0.3-0.9c0.2-0.2,0.4-0.2,0.6-0.2h2.3V5.6c0-0.4,0.1-0.7,0.3-1c0.2-0.3,0.6-0.5,1.2-0.5c0.2,0,0.3,0,0.5,0
			c0.2,0,0.4,0.1,0.5,0.1v5.1h7.1c0.1,0.2,0.1,0.6,0.1,1c0,0.4-0.1,0.7-0.3,0.9c-0.2,0.2-0.4,0.2-0.6,0.2h-6.3V22
			c0,1.2,0.3,2.1,0.9,2.8c0.6,0.7,1.5,1.1,2.7,1.1c0.5,0,0.9-0.1,1.3-0.2c0.4-0.1,0.7-0.2,1-0.4c0.3-0.1,0.6-0.2,0.8-0.4
			c0.2-0.1,0.5-0.2,0.7-0.2c0.4,0,0.6,0.1,0.8,0.4c0.2,0.3,0.3,0.7,0.2,1.4c-0.7,0.4-1.4,0.8-2.2,1.1
			C121.1,28,120.2,28.1,119.2,28.1z"/>
		<linearGradient id="SVGID_64_" gradientUnits="userSpaceOnUse" x1="18.4316" y1="36.3564" x2="187.2207" y2="36.3564">
			<stop  offset="0" style="stop-color:#F6871F"/>
			<stop  offset="0.35" style="stop-color:#ED1C24"/>
			<stop  offset="0.8" style="stop-color:#A43383"/>
			<stop  offset="1" style="stop-color:#0052A4"/>
		</linearGradient>
		<path class="st67" d="M141.9,28.1c-1.8,0-3.3-0.6-4.3-1.7c-1-1.1-1.5-2.5-1.5-4.3V11.5h-3c-0.1-0.2-0.1-0.6-0.1-1
			c0-0.4,0.1-0.7,0.3-0.9c0.2-0.2,0.4-0.2,0.6-0.2h2.3V5.6c0-0.4,0.1-0.7,0.3-1c0.2-0.3,0.6-0.5,1.2-0.5c0.2,0,0.3,0,0.5,0
			c0.2,0,0.4,0.1,0.5,0.1v5.1h7.1c0.1,0.2,0.1,0.6,0.1,1c0,0.4-0.1,0.7-0.3,0.9c-0.2,0.2-0.4,0.2-0.6,0.2h-6.3V22
			c0,1.2,0.3,2.1,0.9,2.8c0.6,0.7,1.5,1.1,2.7,1.1c0.5,0,0.9-0.1,1.3-0.2c0.4-0.1,0.7-0.2,1-0.4c0.3-0.1,0.6-0.2,0.8-0.4
			c0.2-0.1,0.5-0.2,0.7-0.2c0.4,0,0.6,0.1,0.8,0.4c0.2,0.3,0.3,0.7,0.2,1.4c-0.7,0.4-1.4,0.8-2.2,1.1
			C143.9,28,142.9,28.1,141.9,28.1z"/>
		<linearGradient id="SVGID_65_" gradientUnits="userSpaceOnUse" x1="18.4316" y1="36.3564" x2="187.2207" y2="36.3564">
			<stop  offset="0" style="stop-color:#F6871F"/>
			<stop  offset="0.35" style="stop-color:#ED1C24"/>
			<stop  offset="0.8" style="stop-color:#A43383"/>
			<stop  offset="1" style="stop-color:#0052A4"/>
		</linearGradient>
		<path class="st68" d="M151.4,28.1c-0.2,0-0.5,0-0.7,0c-0.2,0-0.4-0.1-0.5-0.1V2.4c0-0.3,0.1-0.6,0.3-0.8c0.2-0.2,0.6-0.3,1.1-0.3
			c0.2,0,0.5,0,0.7,0c0.2,0,0.4,0.1,0.5,0.1V12c0.7-0.8,1.5-1.6,2.6-2.2c1-0.6,2.3-0.9,3.8-0.9c0.9,0,1.8,0.2,2.7,0.5
			c0.8,0.3,1.6,0.8,2.2,1.4c0.6,0.6,1.1,1.5,1.5,2.5c0.4,1,0.6,2.2,0.6,3.6V27c0,0.3-0.1,0.6-0.3,0.8c-0.2,0.2-0.6,0.3-1.1,0.3
			c-0.2,0-0.5,0-0.7,0s-0.4-0.1-0.5-0.1V17.1c0-2-0.5-3.5-1.4-4.5c-0.9-1-2.2-1.5-3.7-1.5c-1.2,0-2.3,0.3-3.3,1
			c-1,0.6-1.8,1.5-2.3,2.4V27c0,0.3-0.1,0.6-0.3,0.8C152.3,28,151.9,28.1,151.4,28.1z"/>
		<linearGradient id="SVGID_66_" gradientUnits="userSpaceOnUse" x1="18.4316" y1="36.3564" x2="187.2207" y2="36.3564">
			<stop  offset="0" style="stop-color:#F6871F"/>
			<stop  offset="0.35" style="stop-color:#ED1C24"/>
			<stop  offset="0.8" style="stop-color:#A43383"/>
			<stop  offset="1" style="stop-color:#0052A4"/>
		</linearGradient>
		<path class="st69" d="M179.5,28.3c-1.5,0-2.9-0.2-4.1-0.7c-1.2-0.5-2.2-1.2-3-2.1c-0.8-0.9-1.4-1.9-1.9-3.1
			c-0.4-1.2-0.6-2.4-0.6-3.8c0-1.4,0.2-2.7,0.7-3.8c0.5-1.2,1.1-2.2,1.9-3.1c0.8-0.9,1.7-1.5,2.8-2c1.1-0.5,2.2-0.7,3.5-0.7
			c1.4,0,2.7,0.3,3.7,0.8c1.1,0.6,1.9,1.3,2.6,2.1c0.7,0.9,1.2,1.8,1.5,2.8c0.3,1,0.5,2,0.5,3c0,0.8,0,1.4-0.1,1.7h-14.6
			c0.1,1.1,0.3,2,0.6,2.8c0.4,0.8,0.9,1.5,1.5,2s1.3,1,2.2,1.3s1.7,0.4,2.6,0.4c0.8,0,1.5-0.1,2-0.2c0.6-0.1,1.1-0.3,1.6-0.4
			c0.5-0.2,0.9-0.3,1.2-0.4c0.3-0.1,0.6-0.2,0.9-0.2c0.4,0,0.7,0.2,0.9,0.5c0.2,0.4,0.3,0.8,0.2,1.4c-0.7,0.4-1.6,0.7-2.8,1.1
			S180.9,28.3,179.5,28.3z M172.5,17.5h12.2c-0.1-0.9-0.2-1.7-0.5-2.5c-0.3-0.8-0.7-1.5-1.2-2c-0.5-0.6-1.1-1-1.8-1.4
			c-0.7-0.3-1.5-0.5-2.4-0.5c-0.9,0-1.7,0.2-2.4,0.5c-0.7,0.3-1.4,0.8-1.9,1.4s-1,1.3-1.3,2C172.8,15.7,172.6,16.6,172.5,17.5z"/>
		<linearGradient id="SVGID_67_" gradientUnits="userSpaceOnUse" x1="18.4316" y1="36.3564" x2="187.2207" y2="36.3564">
			<stop  offset="0" style="stop-color:#F6871F"/>
			<stop  offset="0.35" style="stop-color:#ED1C24"/>
			<stop  offset="0.8" style="stop-color:#A43383"/>
			<stop  offset="1" style="stop-color:#0052A4"/>
		</linearGradient>
		<path class="st70" d="M65.3,71.3c-0.2,0-0.5,0-0.7,0c-0.2,0-0.4-0.1-0.5-0.1v-9.8c-0.8,1-1.8,1.7-2.9,2.2s-2.2,0.7-3.3,0.7
			c-1.2,0-2.4-0.2-3.4-0.7c-1.1-0.5-2-1.1-2.8-2c-0.8-0.8-1.4-1.8-1.9-3c-0.5-1.2-0.7-2.4-0.7-3.8c0-1.4,0.2-2.7,0.7-4
			c0.5-1.2,1.1-2.2,1.9-3.1c0.8-0.9,1.7-1.5,2.7-2c1.1-0.5,2.2-0.7,3.4-0.7c1.5,0,2.8,0.3,3.9,1c1.1,0.7,1.9,1.5,2.5,2.5h0v-1.5
			c0-1.1,0.5-1.7,1.5-1.7c0.3,0,0.7,0.1,1.1,0.2v24.9c0,0.3-0.1,0.6-0.3,0.8C66.1,71.2,65.8,71.3,65.3,71.3z M58.1,62
			c1.2,0,2.4-0.3,3.5-0.9c1.1-0.6,1.9-1.5,2.5-2.6v-5.2c0-0.8-0.1-1.6-0.4-2.4c-0.3-0.7-0.7-1.4-1.2-1.9c-0.5-0.6-1.2-1-1.9-1.3
			c-0.7-0.3-1.5-0.5-2.4-0.5c-1.1,0-2,0.2-2.8,0.6c-0.8,0.4-1.5,1-2,1.7c-0.5,0.7-1,1.5-1.2,2.4c-0.3,0.9-0.4,1.9-0.4,2.9
			s0.1,2,0.4,2.9c0.3,0.9,0.7,1.7,1.3,2.3c0.6,0.7,1.2,1.2,2,1.5C56.1,61.8,57,62,58.1,62z"/>
		<linearGradient id="SVGID_68_" gradientUnits="userSpaceOnUse" x1="18.4316" y1="36.3564" x2="187.2207" y2="36.3564">
			<stop  offset="0" style="stop-color:#F6871F"/>
			<stop  offset="0.35" style="stop-color:#ED1C24"/>
			<stop  offset="0.8" style="stop-color:#A43383"/>
			<stop  offset="1" style="stop-color:#0052A4"/>
		</linearGradient>
		<path class="st71" d="M78.8,64.2c-1,0-1.9-0.2-2.7-0.5c-0.8-0.3-1.6-0.8-2.2-1.4c-0.7-0.6-1.2-1.4-1.5-2.4c-0.4-1-0.5-2.2-0.5-3.5
			V46.3c0-0.3,0.1-0.6,0.3-0.8c0.2-0.2,0.6-0.3,1.1-0.3c0.2,0,0.5,0,0.7,0c0.2,0,0.4,0.1,0.5,0.1v10.9c0,1.9,0.5,3.3,1.4,4.3
			c0.9,0.9,2.1,1.4,3.5,1.4c1.1,0,2.1-0.3,3.1-0.9c1-0.6,1.9-1.5,2.6-2.7V46.3c0-0.3,0.1-0.6,0.3-0.8c0.2-0.2,0.6-0.3,1.1-0.3
			c0.2,0,0.5,0,0.7,0c0.2,0,0.4,0.1,0.5,0.1v9.9c0,1.2,0,2.6,0.1,4c0.1,1.4,0.3,2.9,0.8,4.5c-0.2,0.1-0.4,0.1-0.6,0.2
			C87.7,64,87.5,64,87.2,64c-0.7,0-1.1-0.3-1.3-0.9c-0.1-0.2-0.1-0.5-0.2-0.9c-0.1-0.4-0.2-1-0.3-1.6h0c-0.8,1.1-1.7,1.9-2.7,2.5
			C81.6,63.9,80.3,64.2,78.8,64.2z"/>
		<linearGradient id="SVGID_69_" gradientUnits="userSpaceOnUse" x1="18.4316" y1="36.3564" x2="187.2207" y2="36.3564">
			<stop  offset="0" style="stop-color:#F6871F"/>
			<stop  offset="0.35" style="stop-color:#ED1C24"/>
			<stop  offset="0.8" style="stop-color:#A43383"/>
			<stop  offset="1" style="stop-color:#0052A4"/>
		</linearGradient>
		<path class="st72" d="M98.4,64.2c-1.1,0-2-0.1-2.9-0.4c-0.8-0.3-1.5-0.7-2-1.2c-0.5-0.5-0.9-1.1-1.2-1.8c-0.3-0.7-0.4-1.4-0.4-2.2
			c0-1.8,0.6-3.2,1.9-4.3c1.3-1.1,3.3-1.6,6.1-1.6c1.6,0,3.4,0.2,5.5,0.6v-1.6c0-1.6-0.4-2.7-1.1-3.4s-2-1-3.7-1
			c-0.9,0-1.7,0.1-2.4,0.2c-0.7,0.1-1.2,0.2-1.7,0.4c-0.5,0.1-0.8,0.2-1.2,0.4c-0.3,0.1-0.6,0.2-0.9,0.2c-0.4,0-0.7-0.2-0.9-0.5
			c-0.2-0.4-0.3-0.9-0.2-1.5c0.6-0.2,1.6-0.5,2.9-0.7c1.3-0.3,2.7-0.4,4.3-0.4c1.4,0,2.6,0.2,3.5,0.5s1.7,0.8,2.2,1.5
			c0.5,0.6,0.9,1.4,1.2,2.3c0.2,0.9,0.3,2,0.3,3.1v4.1c0,0.9,0,1.6,0,2.3c0,0.7,0.1,1.2,0.2,1.8c0.1,0.5,0.2,1.1,0.4,1.6
			c0.2,0.5,0.4,1.1,0.6,1.7c-0.2,0.1-0.4,0.2-0.6,0.3c-0.2,0.1-0.4,0.1-0.7,0.1c-0.4,0-0.7-0.1-0.9-0.2s-0.4-0.4-0.5-0.6
			c-0.1-0.3-0.3-0.6-0.4-1.1c-0.1-0.5-0.2-1.1-0.3-1.7h-0.1c-0.7,1.1-1.6,2-2.8,2.7C101.7,63.8,100.2,64.2,98.4,64.2z M98.8,62
			c1.5,0,2.8-0.4,3.9-1.1c1.1-0.7,2-1.7,2.7-3V55c-2-0.4-3.6-0.5-5-0.5c-2,0-3.5,0.4-4.5,1.1c-1,0.7-1.5,1.7-1.5,2.9
			c0,1.1,0.4,1.9,1.2,2.6S97.5,62,98.8,62z"/>
		<linearGradient id="SVGID_70_" gradientUnits="userSpaceOnUse" x1="18.4316" y1="36.3564" x2="187.2207" y2="36.3564">
			<stop  offset="0" style="stop-color:#F6871F"/>
			<stop  offset="0.35" style="stop-color:#ED1C24"/>
			<stop  offset="0.8" style="stop-color:#A43383"/>
			<stop  offset="1" style="stop-color:#0052A4"/>
		</linearGradient>
		<path class="st73" d="M114.3,64.1c-0.2,0-0.5,0-0.7,0c-0.2,0-0.4-0.1-0.5-0.1V38.4c0-0.3,0.1-0.6,0.3-0.8c0.2-0.2,0.6-0.3,1.1-0.3
			c0.2,0,0.5,0,0.7,0.1c0.2,0,0.4,0.1,0.5,0.1V63c0,0.3-0.1,0.6-0.3,0.8C115.2,64,114.8,64.1,114.3,64.1z"/>
		<linearGradient id="SVGID_71_" gradientUnits="userSpaceOnUse" x1="18.4316" y1="36.3564" x2="187.2207" y2="36.3564">
			<stop  offset="0" style="stop-color:#F6871F"/>
			<stop  offset="0.35" style="stop-color:#ED1C24"/>
			<stop  offset="0.8" style="stop-color:#A43383"/>
			<stop  offset="1" style="stop-color:#0052A4"/>
		</linearGradient>
		<path class="st74" d="M122.4,40.8c-0.5,0-0.9-0.2-1.2-0.5c-0.3-0.3-0.5-0.7-0.5-1.2c0-0.5,0.2-0.9,0.5-1.2
			c0.3-0.3,0.7-0.5,1.2-0.5c0.5,0,0.9,0.2,1.2,0.5c0.3,0.3,0.5,0.7,0.5,1.2c0,0.4-0.2,0.8-0.5,1.2C123.3,40.6,122.9,40.8,122.4,40.8
			z M122.3,64.1c-0.2,0-0.5,0-0.7,0s-0.4-0.1-0.5-0.1V46.3c0-0.3,0.1-0.6,0.3-0.8c0.2-0.2,0.6-0.3,1.1-0.3c0.2,0,0.5,0,0.7,0
			c0.2,0,0.4,0.1,0.5,0.1V63c0,0.3-0.1,0.6-0.3,0.8C123.2,64,122.8,64.1,122.3,64.1z"/>
		<linearGradient id="SVGID_72_" gradientUnits="userSpaceOnUse" x1="18.4316" y1="36.3564" x2="187.2207" y2="36.3564">
			<stop  offset="0" style="stop-color:#F6871F"/>
			<stop  offset="0.35" style="stop-color:#ED1C24"/>
			<stop  offset="0.8" style="stop-color:#A43383"/>
			<stop  offset="1" style="stop-color:#0052A4"/>
		</linearGradient>
		<path class="st75" d="M135.9,64.1c-1.8,0-3.3-0.6-4.3-1.7c-1-1.1-1.5-2.5-1.5-4.3V47.5h-3c-0.1-0.2-0.1-0.6-0.1-1
			c0-0.4,0.1-0.7,0.3-0.9c0.2-0.2,0.4-0.2,0.6-0.2h2.3v-3.8c0-0.4,0.1-0.7,0.3-1c0.2-0.3,0.6-0.5,1.2-0.5c0.2,0,0.3,0,0.5,0
			c0.2,0,0.4,0.1,0.5,0.1v5.1h7.1c0.1,0.2,0.1,0.6,0.1,1c0,0.4-0.1,0.7-0.3,0.9c-0.2,0.2-0.4,0.2-0.6,0.2h-6.3V58
			c0,1.2,0.3,2.1,0.9,2.8c0.6,0.7,1.5,1.1,2.7,1.1c0.5,0,0.9-0.1,1.3-0.2c0.4-0.1,0.7-0.2,1-0.4c0.3-0.1,0.6-0.2,0.8-0.4
			c0.2-0.1,0.5-0.2,0.7-0.2c0.4,0,0.6,0.1,0.8,0.4c0.2,0.3,0.3,0.7,0.2,1.4c-0.7,0.4-1.4,0.8-2.2,1.1
			C137.9,64,136.9,64.1,135.9,64.1z"/>
		<linearGradient id="SVGID_73_" gradientUnits="userSpaceOnUse" x1="18.4316" y1="36.3564" x2="187.2207" y2="36.3564">
			<stop  offset="0" style="stop-color:#F6871F"/>
			<stop  offset="0.35" style="stop-color:#ED1C24"/>
			<stop  offset="0.8" style="stop-color:#A43383"/>
			<stop  offset="1" style="stop-color:#0052A4"/>
		</linearGradient>
		<path class="st76" d="M147.7,71.4c-0.2,0-0.5,0-0.7-0.1c-0.3-0.1-0.5-0.1-0.7-0.2l3-7.1l-7.6-18.4c0.2-0.1,0.4-0.1,0.6-0.2
			c0.2-0.1,0.5-0.1,0.7-0.1c0.4,0,0.8,0.1,1.1,0.2c0.3,0.2,0.5,0.4,0.7,0.9l5.7,14.7h0l5.6-14.7c0.2-0.4,0.4-0.7,0.6-0.8
			c0.3-0.2,0.6-0.2,0.8-0.2c0.2,0,0.5,0,0.7,0.1c0.3,0.1,0.5,0.1,0.7,0.2l-9.9,24.8c-0.2,0.4-0.4,0.7-0.6,0.8
			C148.2,71.3,148,71.4,147.7,71.4z"/>
	</g>
</g>
</svg>
